<?xml version="1.0" standalone="no"?>
<!DOCTYPE svg PUBLIC "-//W3C//DTD SVG 1.1//EN"
"http://www.w3.org/Graphics/SVG/1.1/DTD/svg11.dtd">
<svg width="124.913" height="83.3386" viewBox="0 0 2602.36 1736.22" version="1.1"
xmlns="http://www.w3.org/2000/svg"
xmlns:xlink="http://www.w3.org/1999/xlink">
<circle cx="671.169" cy="489.369" r="31.4961" style=""/>
<circle cx="1000.37" cy="280.369" r="31.4961" style=""/>
<circle cx="1000.37" cy="480.369" r="31.4961" style=""/>
<circle cx="1600.37" cy="280.369" r="31.4961" style=""/>
<circle cx="1600.37" cy="480.369" r="31.4961" style=""/>
<circle cx="1931.17" cy="489.369" r="31.4961" style=""/>
<circle cx="1931.17" cy="1089.37" r="31.4961" style=""/>
<circle cx="1651.97" cy="1419.37" r="31.4961" style=""/>
<circle cx="1455.17" cy="1419.37" r="31.4961" style=""/>
<circle cx="1140.17" cy="1419.37" r="31.4961" style=""/>
<circle cx="943.369" cy="1419.37" r="31.4961" style=""/>
<circle cx="671.169" cy="1089.37" r="31.4961" style=""/>
<circle cx="316.969" cy="316.969" r="39.3701" style=""/>
<circle cx="316.969" cy="516.969" r="39.3701" style=""/>
<circle cx="316.969" cy="716.969" r="39.3701" style=""/>
<circle cx="1012.37" cy="1061.57" r="39.3701" style=""/>
<circle cx="1212.37" cy="1061.57" r="39.3701" style=""/>
<circle cx="1412.37" cy="1061.57" r="39.3701" style=""/>
<circle cx="1612.37" cy="1061.57" r="39.3701" style=""/>
<circle cx="2277.57" cy="524.769" r="39.3701" style=""/>
<circle cx="2277.57" cy="324.769" r="39.3701" style=""/>
</svg>
