<?xml version="1.0" standalone="no"?>
<!DOCTYPE svg PUBLIC "-//W3C//DTD SVG 1.1//EN"
"http://www.w3.org/Graphics/SVG/1.1/DTD/svg11.dtd">
<svg width="124.913" height="83.3386" viewBox="0 0 2602.36 1736.22" version="1.1"
xmlns="http://www.w3.org/2000/svg"
xmlns:xlink="http://www.w3.org/1999/xlink">
<g fill-rule="evenodd"><path d="M 80.7085,1379.92 L 80.7085,238.189 L 83.7345,207.465 L 92.6945,177.923 L 107.249,150.697 L 126.833,126.833 L 150.697,107.249 L 177.923,92.6945 L 207.465,83.7345 L 238.189,80.7085 L 2364.17,80.7085 L 2394.89,83.7345 L 2424.44,92.6945 L 2451.66,107.249 L 2475.53,126.833 L 2495.11,150.697 L 2509.66,177.923 L 2518.63,207.465 L 2521.65,238.189 L 2521.65,1379.92 L 2516.36,1433.68 L 2500.67,1485.38 L 2475.21,1533.03 L 2440.93,1574.79 L 2399.17,1609.06 L 2351.53,1634.53 L 2299.83,1650.21 L 2246.06,1655.51 L 356.299,1655.51 L 302.533,1650.21 L 250.835,1634.53 L 203.189,1609.06 L 161.427,1574.79 L 127.153,1533.03 L 101.687,1485.38 L 86.0025,1433.68 L 80.7085,1379.92 z " style="fill-opacity:1.000000;fill:rgb(103,198,105);stroke:rgb(0,0,0);stroke-width:2"/></g>
</svg>
