<?xml version="1.0" standalone="no"?>
<!DOCTYPE svg PUBLIC "-//W3C//DTD SVG 1.1//EN"
"http://www.w3.org/Graphics/SVG/1.1/DTD/svg11.dtd">
<svg width="124.913" height="83.3386" viewBox="0 0 2602.36 1736.22" version="1.1"
xmlns="http://www.w3.org/2000/svg"
xmlns:xlink="http://www.w3.org/1999/xlink">
<polyline points="41.3365,1379.92 41.5265,1383.78 46.8205,1437.54 47.3885,1441.36 48.3265,1445.11 64.0105,1496.81 66.9645,1503.94 92.4305,1551.59 94.4165,1554.9 96.7185,1558.01 130.993,1599.77 133.587,1602.63 136.451,1605.22 178.213,1639.5 184.629,1643.78 232.275,1669.25 235.767,1670.9 239.405,1672.21 291.103,1687.89 298.673,1689.39 352.439,1694.69 356.299,1694.88 2246.06,1694.88 2249.92,1694.69 2303.68,1689.39 2311.25,1687.89 2362.95,1672.21 2366.59,1670.9 2370.08,1669.25 2417.73,1643.78 2424.15,1639.5 2465.91,1605.22 2468.77,1602.63 2471.37,1599.77 2505.64,1558 2509.93,1551.59 2535.39,1503.94 2537.05,1500.45 2538.35,1496.81 2554.03,1445.11 2555.54,1437.54 2560.83,1383.78 2561.02,1379.92 2561.02,238.189 2560.83,234.329 2557.81,203.605 2557.24,199.783 2556.3,196.035 2547.34,166.493 2544.38,159.363 2529.83,132.137 2527.85,128.823 2525.54,125.721 2505.96,101.857 2503.37,98.9925 2500.5,96.3985 2476.64,76.8145 2470.22,72.5265 2442.99,57.9725 2439.5,56.3205 2435.86,55.0185 2406.32,46.0585 2398.75,44.5525 2368.03,41.5265 2364.17,41.3365 238.189,41.3365 234.329,41.5265 203.605,44.5525 196.037,46.0585 166.495,55.0185 162.855,56.3205 159.361,57.9725 132.135,72.5265 125.721,76.8145 101.857,96.3985 98.9925,98.9925 96.3985,101.857 76.8145,125.721 72.5265,132.135 57.9725,159.361 56.3205,162.855 55.0185,166.495 46.0585,196.037 44.5525,203.605 41.5265,234.329 41.3365,238.189 41.3365,1379.92" style="stroke:rgb(103,198,105);stroke-width:78.740157;fill:none;stroke-opacity:0.5;stroke-linecap:round;stroke-linejoin:round;;fill:none"/>
<polyline points="41.3365,1379.92 41.5265,1383.78 46.8205,1437.54 47.3885,1441.36 48.3265,1445.11 64.0105,1496.81 66.9645,1503.94 92.4305,1551.59 94.4165,1554.9 96.7185,1558.01 130.993,1599.77 133.587,1602.63 136.451,1605.22 178.213,1639.5 184.629,1643.78 232.275,1669.25 235.767,1670.9 239.405,1672.21 291.103,1687.89 298.673,1689.39 352.439,1694.69 356.299,1694.88 2246.06,1694.88 2249.92,1694.69 2303.68,1689.39 2311.25,1687.89 2362.95,1672.21 2366.59,1670.9 2370.08,1669.25 2417.73,1643.78 2424.15,1639.5 2465.91,1605.22 2468.77,1602.63 2471.37,1599.77 2505.64,1558 2509.93,1551.59 2535.39,1503.94 2537.05,1500.45 2538.35,1496.81 2554.03,1445.11 2555.54,1437.54 2560.83,1383.78 2561.02,1379.92 2561.02,238.189 2560.83,234.329 2557.81,203.605 2557.24,199.783 2556.3,196.035 2547.34,166.493 2544.38,159.363 2529.83,132.137 2527.85,128.823 2525.54,125.721 2505.96,101.857 2503.37,98.9925 2500.5,96.3985 2476.64,76.8145 2470.22,72.5265 2442.99,57.9725 2439.5,56.3205 2435.86,55.0185 2406.32,46.0585 2398.75,44.5525 2368.03,41.5265 2364.17,41.3365 238.189,41.3365 234.329,41.5265 203.605,44.5525 196.037,46.0585 166.495,55.0185 162.855,56.3205 159.361,57.9725 132.135,72.5265 125.721,76.8145 101.857,96.3985 98.9925,98.9925 96.3985,101.857 76.8145,125.721 72.5265,132.135 57.9725,159.361 56.3205,162.855 55.0185,166.495 46.0585,196.037 44.5525,203.605 41.5265,234.329 41.3365,238.189 41.3365,1379.92" style="stroke:rgb(0,0,0);stroke-width:1px;fill:none;stroke-opacity:1;stroke-linecap:round;stroke-linejoin:round;;fill:none"/>
</svg>
