<?xml version="1.0" standalone="no"?>
<!DOCTYPE svg PUBLIC "-//W3C//DTD SVG 1.1//EN"
"http://www.w3.org/Graphics/SVG/1.1/DTD/svg11.dtd">
<svg width="124.913" height="83.3386" viewBox="0 0 2602.36 1736.22" version="1.1"
xmlns="http://www.w3.org/2000/svg"
xmlns:xlink="http://www.w3.org/1999/xlink">
<g fill-rule="evenodd"><path d="M 120.117,1379.66 L 120.117,238.537 L 121.269,222.081 L 124.751,205.605 L 130.543,189.793 L 138.527,174.967 L 149.449,160.375 L 161.427,148.539 L 174.967,138.527 L 189.793,130.543 L 205.605,124.751 L 222.081,121.269 L 238.537,120.117 L 1283.54,120.117 L 1288.82,121.667 L 1292.42,125.825 L 1293.31,129.881 L 1293.31,954.893 L 1291.76,960.173 L 1287.6,963.775 L 1282.15,964.557 L 1277.54,962.593 L 1260.02,953.045 L 1241.5,946.687 L 1222.19,943.465 L 1202.61,943.465 L 1183.3,946.687 L 1164.78,953.045 L 1159.4,955.953 L 1154.02,957.103 L 1148.87,955.161 L 1146.49,952.561 L 1140.7,943.349 L 1130.66,933.313 L 1118.64,925.761 L 1105.25,921.073 L 1094.68,919.881 L 1043.9,919.881 L 1043.9,982.874 L 1091.14,982.874 L 1091.14,1140.35 L 1043.9,1140.35 L 1043.9,1203.34 L 1094.68,1203.34 L 1105.25,1202.15 L 1119.17,1197.13 L 1124.47,1195.64 L 1129.73,1197.24 L 1133.29,1201.44 L 1133.66,1202.39 L 1141.02,1225.13 L 1141.49,1228.14 L 1141.49,1307.12 L 1139.94,1312.4 L 1135.79,1316.01 L 1131.73,1316.89 L 1073.4,1316.89 L 1068.71,1317.39 L 1058.09,1321.35 L 1049.02,1328.14 L 1042.23,1337.22 L 1038.27,1347.83 L 1037.76,1352.53 L 1037.76,1365.34 L 1036.21,1370.62 L 1034.9,1372.24 L 1003.96,1403.19 L 1004.93,1406.19 L 1006.31,1419.29 L 1004.93,1432.39 L 1000.86,1444.91 L 994.278,1456.32 L 985.466,1466.1 L 974.812,1473.84 L 962.782,1479.2 L 949.9,1481.94 L 936.732,1481.94 L 923.85,1479.2 L 911.82,1473.84 L 901.166,1466.1 L 892.354,1456.32 L 885.77,1444.91 L 881.7,1432.39 L 880.324,1419.29 L 881.7,1406.19 L 882.676,1403.19 L 834.775,1355.29 L 830.715,1361.92 L 823.127,1380.24 L 818.497,1399.52 L 816.941,1419.29 L 818.497,1439.06 L 823.127,1458.34 L 830.715,1476.66 L 841.077,1493.57 L 844.547,1497.63 L 846.797,1502.65 L 845.975,1508.09 L 842.343,1512.23 L 837.123,1513.74 L 822.783,1513.74 L 817.505,1512.19 L 815.879,1510.88 L 745.025,1440.02 L 742.389,1435.2 L 742.165,1433.12 L 742.165,1206.75 L 742.389,1204.67 L 760.833,1120.04 L 764.575,1106.81 L 766.191,1089.37 L 764.575,1071.92 L 759.781,1055.08 L 751.973,1039.39 L 741.415,1025.41 L 728.469,1013.61 L 713.575,1004.39 L 697.239,998.061 L 680.019,994.843 L 662.501,994.843 L 645.279,998.061 L 640.329,999.853 L 555.957,1018.24 L 553.879,1018.46 L 469.241,1018.46 L 463.961,1016.91 L 462.337,1015.6 L 390.693,943.961 L 388.057,939.133 L 387.835,937.057 L 387.835,863.841 L 388.969,859.273 L 418.801,802.939 L 422.763,792.321 L 423.267,787.627 L 423.267,646.231 L 422.763,641.537 L 418.803,630.917 L 412.011,621.847 L 407.247,618.281 L 403.951,613.877 L 403.559,608.389 L 406.195,603.561 L 410.465,601.063 L 456.371,588.197 L 459.007,587.835 L 568.399,587.835 L 572.035,588.161 L 580.669,587.835 L 650.683,587.835 L 667.519,584.465 L 680.019,583.897 L 697.239,580.679 L 702.759,578.539 L 705.501,577.871 L 785.753,551.701 L 788.779,551.219 L 866.519,551.219 L 868.995,551.539 L 982.543,581.545 L 1000.39,583.107 L 1004.85,582.717 L 1018.24,581.545 L 1035.55,576.909 L 1051.79,569.335 L 1066.47,559.059 L 1079.14,546.389 L 1089.41,531.711 L 1096.99,515.471 L 1101.62,498.165 L 1103.18,480.315 L 1101.62,462.465 L 1096.99,445.157 L 1089.41,428.919 L 1079.14,414.241 L 1066.55,401.655 L 1063.91,396.827 L 1064.31,391.339 L 1067.6,386.935 L 1074.67,382.553 L 1089.75,369.675 L 1102.63,354.595 L 1112.99,337.687 L 1120.58,319.367 L 1122.39,311.811 L 1054.55,311.811 L 1051.36,317.341 L 1042.54,327.127 L 1031.89,334.868 L 1019.86,340.224 L 1006.98,342.962 L 993.809,342.962 L 980.928,340.224 L 968.898,334.868 L 958.244,327.127 L 949.432,317.341 L 946.239,311.811 L 878.391,311.811 L 880.205,319.367 L 887.793,337.687 L 898.155,354.595 L 911.033,369.675 L 922.269,379.271 L 925.277,383.877 L 925.317,389.379 L 922.375,394.029 L 918.403,396.141 L 868.995,409.089 L 866.519,409.409 L 785.905,409.409 L 688.355,396.387 L 680.019,394.843 L 662.501,394.843 L 645.279,398.061 L 628.945,404.389 L 619.051,410.511 L 560.391,444.695 L 555.475,446.023 L 459.007,446.023 L 456.371,445.661 L 406.141,431.583 L 401.477,428.665 L 399.129,423.689 L 399.845,418.235 L 402.435,414.757 L 409.081,409.081 L 422.363,393.531 L 433.047,376.093 L 440.873,357.201 L 442.981,348.425 L 375.605,348.425 L 371.076,356.269 L 361.713,366.667 L 350.394,374.891 L 337.611,380.583 L 323.925,383.492 L 309.933,383.492 L 296.247,380.583 L 283.465,374.891 L 272.145,366.667 L 262.782,356.269 L 258.253,348.425 L 190.877,348.425 L 192.983,357.201 L 200.809,376.093 L 211.495,393.531 L 224.777,409.081 L 240.327,422.363 L 242.653,423.787 L 246.343,427.867 L 247.243,433.295 L 245.065,438.347 L 235.157,448.315 L 224.485,463.557 L 216.621,480.421 L 211.805,498.393 L 210.183,516.929 L 211.805,535.465 L 216.621,553.437 L 224.485,570.301 L 235.157,585.543 L 244.757,595.143 L 247.395,599.971 L 247.001,605.459 L 243.705,609.863 L 241.265,611.195 L 230.917,615.055 L 221.847,621.847 L 215.055,630.919 L 211.095,641.537 L 210.591,646.231 L 210.591,787.627 L 211.095,792.321 L 215.055,802.939 L 244.889,859.273 L 246.023,863.841 L 246.023,977.455 L 248.747,991.153 L 254.093,1004.06 L 261.853,1015.67 L 390.627,1144.44 L 402.239,1152.2 L 415.143,1157.55 L 428.843,1160.27 L 553.879,1160.27 L 555.957,1160.5 L 586.101,1167.07 L 590.927,1169.71 L 593.561,1174.53 L 600.129,1204.67 L 600.353,1206.75 L 600.353,1473.52 L 603.079,1487.22 L 608.423,1500.12 L 616.183,1511.73 L 703.883,1599.43 L 706.519,1604.26 L 706.127,1609.75 L 702.831,1614.15 L 697.675,1616.08 L 356.043,1616.09 L 331.105,1614.73 L 306.701,1610.81 L 283.809,1604.67 L 260.713,1595.87 L 237.779,1584.18 L 217.077,1570.67 L 197.901,1555.07 L 180.461,1537.56 L 164.945,1518.31 L 152.039,1498.44 L 149.547,1493.67 L 140.353,1475.51 L 131.861,1453.38 L 125.199,1428.52 L 121.385,1404.1 L 120.117,1379.66M 190.877,285.433 L 258.254,285.433 L 262.782,277.589 L 272.145,267.191 L 283.465,258.967 L 285.433,258.091 L 285.433,190.877 L 276.657,192.983 L 257.763,200.809 L 240.327,211.495 L 224.777,224.777 L 211.495,240.327 L 200.809,257.763 L 192.983,276.657 L 190.877,285.433M 210.591,1389.47 L 213.083,1408.41 L 218.027,1426.86 L 225.337,1444.5 L 234.887,1461.04 L 246.513,1476.2 L 260.019,1489.7 L 275.173,1501.33 L 291.715,1510.88 L 309.361,1518.19 L 327.811,1523.14 L 346.749,1525.63 L 365.849,1525.63 L 384.787,1523.14 L 403.235,1518.19 L 420.883,1510.88 L 437.423,1501.33 L 452.577,1489.7 L 466.083,1476.2 L 477.711,1461.04 L 487.261,1444.5 L 494.571,1426.86 L 499.515,1408.41 L 502.007,1389.47 L 502.007,1370.37 L 499.515,1351.43 L 494.571,1332.98 L 487.261,1315.34 L 477.711,1298.79 L 466.083,1283.64 L 452.577,1270.13 L 437.423,1258.51 L 420.881,1248.96 L 403.237,1241.65 L 384.785,1236.7 L 365.849,1234.21 L 346.749,1234.21 L 327.811,1236.7 L 309.361,1241.65 L 291.715,1248.96 L 275.173,1258.51 L 260.019,1270.14 L 246.513,1283.64 L 234.887,1298.79 L 225.335,1315.34 L 218.027,1332.98 L 213.083,1351.43 L 210.591,1370.37 L 210.591,1389.47M 348.425,258.09 L 350.394,258.967 L 361.713,267.191 L 371.076,277.589 L 375.604,285.433 L 442.981,285.433 L 440.873,276.657 L 433.047,257.763 L 422.363,240.327 L 409.081,224.777 L 393.531,211.495 L 376.093,200.809 L 357.201,192.983 L 348.425,190.877 L 348.425,258.09M 870.669,1143.89 L 871.859,1154.46 L 876.547,1167.86 L 884.101,1179.88 L 894.137,1189.91 L 906.157,1197.47 L 919.555,1202.15 L 930.123,1203.34 L 980.905,1203.34 L 980.905,1140.35 L 933.661,1140.35 L 933.661,1093.11 L 870.669,1093.11 L 870.669,1143.89M 870.669,1030.12 L 933.661,1030.12 L 933.661,982.874 L 980.905,982.874 L 980.905,919.881 L 930.123,919.881 L 919.555,921.073 L 906.157,925.761 L 894.137,933.313 L 884.101,943.349 L 876.547,955.369 L 871.859,968.767 L 870.669,979.335 L 870.669,1030.12M 878.391,248.819 L 946.24,248.819 L 949.432,243.289 L 958.244,233.503 L 968.897,225.763 L 968.897,158.311 L 961.341,160.125 L 943.021,167.715 L 926.113,178.075 L 911.033,190.955 L 898.155,206.033 L 887.793,222.941 L 880.205,241.263 L 878.391,248.819M 879.317,1310.75 L 927.23,1358.66 L 936.732,1356.64 L 949.9,1356.64 L 959.4,1358.66 L 1007.31,1310.75 L 1000.69,1306.69 L 982.367,1299.1 L 963.085,1294.47 L 943.315,1292.92 L 923.545,1294.47 L 904.263,1299.1 L 885.943,1306.69 L 879.317,1310.75M 1031.89,225.762 L 1042.54,233.503 L 1051.36,243.289 L 1054.55,248.819 L 1122.39,248.819 L 1120.58,241.263 L 1112.99,222.941 L 1102.63,206.033 L 1089.75,190.955 L 1074.67,178.075 L 1057.76,167.715 L 1039.44,160.125 L 1031.89,158.311 L 1031.89,225.762 z " style="fill-opacity:1.000000;fill:rgb(103,198,105);stroke:rgb(0,0,0);stroke-width:2"/></g>
<g fill-rule="evenodd"><path d="M 250,783.858 L 250,650 L 383.858,650 L 383.858,783.858 L 383.576,783.858 L 383.539,784.459 L 348.425,850.512 L 348.425,957.424 L 448.873,1057.87 L 561.46,1057.87 L 649.415,1038.61 L 650.138,1038.77 L 654.227,1036.95 L 665.498,1034.55 L 677.021,1034.55 L 688.292,1036.95 L 698.819,1041.64 L 708.141,1048.41 L 715.851,1056.97 L 721.613,1066.95 L 725.173,1077.91 L 726.378,1089.37 L 725.173,1100.83 L 721.97,1110.69 L 702.755,1199.11 L 702.755,1453.49 L 802.415,1553.15 L 1091.28,1553.15 L 1108.67,1535.76 L 1108.67,1482.28 L 1077.17,1482.28 L 1077.17,1356.3 L 1158.61,1356.3 L 1180.9,1334.01 L 1180.9,1218.79 L 1135.38,1077.99 L 1133.66,1061.61 L 1135.38,1045.24 L 1140.47,1029.59 L 1148.7,1015.33 L 1159.71,1003.1 L 1173.03,993.423 L 1188.07,986.728 L 1204.17,983.305 L 1220.63,983.305 L 1236.73,986.728 L 1251.77,993.423 L 1265.09,1003.1 L 1276.1,1015.33 L 1284.33,1029.59 L 1289.42,1045.24 L 1291.14,1061.61 L 1289.42,1077.99 L 1243.9,1218.7 L 1243.9,1347.05 L 1243.29,1353.2 L 1241.5,1359.11 L 1238.59,1364.55 L 1234.67,1369.33 L 1203.16,1400.84 L 1203.16,1482.28 L 1171.66,1482.28 L 1171.66,1548.81 L 1171.06,1554.95 L 1169.26,1560.86 L 1166.35,1566.31 L 1162.44,1571.08 L 1126.6,1606.91 L 1122.84,1610.12 L 1118.63,1612.71 L 1114.06,1614.6 L 1109.26,1615.75 L 1104.33,1616.14 L 789.369,1616.14 L 783.224,1615.54 L 777.315,1613.74 L 771.87,1610.83 L 767.097,1606.92 L 648.987,1488.81 L 645.778,1485.05 L 643.195,1480.83 L 641.304,1476.27 L 640.15,1471.46 L 639.762,1466.53 L 639.762,1199.17 L 625.674,1134.95 L 561.521,1120.86 L 435.827,1120.86 L 429.682,1120.26 L 423.773,1118.47 L 418.328,1115.56 L 413.555,1111.64 L 294.657,992.742 L 290.74,987.969 L 287.83,982.524 L 286.038,976.615 L 285.432,970.471 L 285.432,850.557 L 250.317,784.459 L 250.26,783.858 L 250,783.858 z " style="fill-opacity:1.000000;fill:rgb(115,81,255);stroke:rgb(0,0,0);stroke-width:2"/></g>
<g fill-rule="evenodd"><path d="M 250,516.929 L 251.463,503.014 L 255.786,489.707 L 262.782,477.589 L 272.145,467.191 L 283.465,458.967 L 296.247,453.276 L 309.933,450.367 L 323.925,450.367 L 337.611,453.276 L 342.586,455.491 L 343.327,455.315 L 450.354,485.432 L 569.758,485.432 L 639.682,444.556 L 643.701,441.636 L 654.227,436.95 L 665.498,434.554 L 677.021,434.554 L 683.04,435.833 L 779.08,448.818 L 874.78,448.818 L 975.511,422.321 L 976.266,422.482 L 980.928,420.406 L 993.809,417.668 L 1006.98,417.668 L 1019.86,420.406 L 1031.89,425.762 L 1042.54,433.503 L 1051.36,443.289 L 1057.94,454.694 L 1062.01,467.218 L 1063.39,480.315 L 1062.01,493.412 L 1057.94,505.936 L 1051.36,517.341 L 1042.54,527.127 L 1031.89,534.868 L 1019.86,540.224 L 1006.98,542.962 L 993.809,542.962 L 980.928,540.224 L 976.231,538.133 L 975.511,538.309 L 874.859,511.811 L 779.395,511.811 L 693.161,540.029 L 692.434,539.946 L 688.292,541.791 L 677.021,544.186 L 671.016,544.186 L 670.375,544.521 L 657.651,545.013 L 655.754,546.027 L 649.845,547.819 L 643.701,548.425 L 450.435,548.425 L 343.327,578.543 L 342.557,578.38 L 337.611,580.583 L 323.925,583.492 L 309.933,583.492 L 296.247,580.583 L 283.465,574.891 L 272.145,566.667 L 262.782,556.269 L 255.786,544.152 L 251.463,530.844 L 250,516.929 z " style="fill-opacity:1.000000;fill:rgb(74,236,41);stroke:rgb(0,0,0);stroke-width:2"/></g>
<g fill-rule="evenodd"><path d="M 1332.68,1606.34 L 1332.68,1169.13 L 1334.23,1163.86 L 1338.38,1160.25 L 1343.83,1159.47 L 1347.22,1160.64 L 1364.79,1170.15 L 1383.31,1176.5 L 1402.61,1179.72 L 1422.19,1179.72 L 1441.49,1176.5 L 1460.01,1170.15 L 1477.22,1160.83 L 1480.91,1157.96 L 1452.34,1129.39 L 1436.73,1136.5 L 1420.63,1139.92 L 1404.17,1139.92 L 1388.07,1136.5 L 1373.03,1129.81 L 1359.71,1120.13 L 1348.7,1107.9 L 1340.47,1093.64 L 1335.38,1077.99 L 1333.66,1061.61 L 1335.38,1045.24 L 1340.47,1029.59 L 1348.7,1015.33 L 1359.71,1003.1 L 1373.03,993.423 L 1388.07,986.728 L 1404.17,983.305 L 1420.63,983.305 L 1436.73,986.728 L 1452.34,993.836 L 1480.91,965.267 L 1477.22,962.397 L 1460.01,953.081 L 1441.49,946.725 L 1422.19,943.503 L 1402.61,943.503 L 1383.31,946.725 L 1364.79,953.081 L 1347.22,962.589 L 1342.51,963.855 L 1337.22,962.343 L 1333.59,958.213 L 1332.68,954.091 L 1332.68,129.881 L 1334.23,124.603 L 1338.38,120.999 L 1342.44,120.117 L 2363.82,120.117 L 2381.66,121.467 L 2398.09,125.143 L 2412.57,130.543 L 2428.56,139.279 L 2441.99,149.451 L 2452.91,160.375 L 2463.83,174.967 L 2471.82,189.793 L 2477.22,204.271 L 2480.89,220.703 L 2482.24,238.537 L 2482.24,1379.66 L 2480.98,1404.1 L 2477.16,1428.52 L 2470.5,1453.38 L 2462.01,1475.51 L 2450.83,1497.55 L 2436.81,1519.14 L 2421.22,1538.32 L 2403.7,1555.76 L 2384.46,1571.27 L 2363.7,1584.69 L 2341.65,1595.87 L 2318.55,1604.67 L 2294.66,1611.02 L 2270.24,1614.83 L 2245.81,1616.1 L 1342.44,1616.1 L 1337.16,1614.55 L 1333.56,1610.39 L 1332.68,1606.34M 1352.37,1419.29 L 1353.93,1437.13 L 1358.57,1454.43 L 1366.14,1470.67 L 1370.16,1476.41 L 1399.08,1447.5 L 1397.58,1444.91 L 1393.51,1432.39 L 1392.13,1419.29 L 1393.51,1406.19 L 1397.58,1393.67 L 1399.08,1391.08 L 1370.16,1362.17 L 1366.14,1367.91 L 1358.57,1384.15 L 1353.93,1401.45 L 1352.37,1419.29M 1398,1504.25 L 1403.75,1508.28 L 1419.98,1515.85 L 1437.28,1520.48 L 1455.13,1522.04 L 1472.97,1520.48 L 1490.27,1515.85 L 1506.5,1508.28 L 1512.25,1504.25 L 1483.31,1475.32 L 1474.59,1479.2 L 1461.71,1481.94 L 1448.54,1481.94 L 1435.66,1479.2 L 1426.94,1475.32 L 1398,1504.25M 1398,1334.33 L 1426.94,1363.27 L 1435.66,1359.38 L 1448.54,1356.64 L 1461.71,1356.64 L 1474.59,1359.38 L 1483.31,1363.26 L 1512.25,1334.33 L 1506.5,1330.3 L 1490.27,1322.73 L 1472.97,1318.1 L 1455.13,1316.54 L 1437.28,1318.1 L 1419.98,1322.73 L 1403.75,1330.3 L 1398,1334.33M 1479.92,1021.94 L 1484.33,1029.59 L 1489.42,1045.24 L 1491.14,1061.61 L 1489.42,1077.99 L 1484.33,1093.64 L 1479.92,1101.29 L 1508.73,1130.11 L 1509.63,1130.01 L 1515.04,1131.01 L 1518.6,1134.11 L 1523.82,1139.83 L 1579.26,1217.53 L 1581.06,1222.73 L 1581.07,1310.41 L 1579.52,1315.69 L 1575.36,1319.29 L 1569.9,1321.35 L 1560.83,1328.14 L 1554.04,1337.22 L 1550.08,1347.83 L 1549.56,1352.79 L 1548.02,1357.62 L 1543.87,1361.22 L 1540.44,1361.81 L 1511.18,1391.08 L 1512.67,1393.67 L 1516.74,1406.19 L 1518.12,1419.29 L 1516.74,1432.39 L 1512.67,1444.91 L 1511.18,1447.5 L 1540.5,1476.82 L 1544.35,1477.6 L 1548.3,1481.42 L 1549.54,1485.79 L 1550.08,1490.75 L 1554.04,1501.36 L 1560.83,1510.44 L 1569.9,1517.23 L 1580.52,1521.19 L 1585.21,1521.69 L 1718.74,1521.69 L 1723.43,1521.19 L 1734.05,1517.23 L 1743.12,1510.44 L 1749.91,1501.36 L 1753.87,1490.75 L 1754.38,1486.05 L 1754.38,1352.53 L 1753.87,1347.83 L 1749.91,1337.22 L 1743.12,1328.14 L 1734.05,1321.35 L 1729.23,1319.56 L 1724.83,1316.26 L 1722.91,1311.11 L 1722.88,1210.91 L 1723.27,1208.02 L 1725.06,1174.11 L 1726.88,1168.92 L 1731.22,1165.54 L 1733.56,1164.94 L 1769.05,1160.38 L 1813.72,1160.27 L 1815.8,1160.5 L 1900.17,1178.88 L 1905.12,1180.68 L 1922.34,1183.9 L 1939.86,1183.9 L 1957.08,1180.68 L 1973.42,1174.35 L 1988.31,1165.13 L 2001.26,1153.32 L 2011.81,1139.34 L 2019.62,1123.66 L 2024.42,1106.81 L 2026.03,1089.37 L 2024.42,1071.92 L 2019.62,1055.08 L 2011.81,1039.39 L 2001.26,1025.41 L 1988.31,1013.61 L 1973.42,1004.39 L 1957.08,998.061 L 1939.86,994.843 L 1922.34,994.843 L 1905.12,998.061 L 1900.17,999.853 L 1815.8,1018.24 L 1813.72,1018.46 L 1778.12,1018.46 L 1773.31,1017.19 L 1679.84,964.257 L 1677.24,962.363 L 1660.02,953.045 L 1641.5,946.687 L 1622.19,943.465 L 1602.61,943.465 L 1583.3,946.687 L 1564.78,953.045 L 1547.56,962.363 L 1532.11,974.391 L 1518.6,989.115 L 1514.63,992.413 L 1509.63,993.213 L 1508.73,993.119 L 1479.92,1021.94M 1497.6,280.315 L 1499.16,298.163 L 1503.8,315.471 L 1511.37,331.711 L 1521.65,346.389 L 1534.32,359.059 L 1536.26,360.415 L 1539.69,364.713 L 1540.26,370.185 L 1537.77,375.095 L 1533.03,377.883 L 1528.94,378.417 L 1518.32,382.377 L 1509.25,389.169 L 1502.46,398.241 L 1498.5,408.859 L 1497.99,413.553 L 1497.99,547.075 L 1498.5,551.769 L 1502.46,562.387 L 1509.25,571.459 L 1518.32,578.251 L 1528.94,582.211 L 1533.63,582.717 L 1666.1,582.763 L 1671.85,582.211 L 1681.78,578.611 L 1734.5,552.251 L 1738.86,551.219 L 1813.58,551.219 L 1816.61,551.701 L 1900.97,579.071 L 1905.12,580.679 L 1922.34,583.897 L 1939.86,583.897 L 1957.08,580.679 L 1973.42,574.349 L 1988.31,565.127 L 2001.26,553.325 L 2011.81,539.345 L 2019.62,523.663 L 2024.42,506.813 L 2026.03,489.369 L 2024.42,471.925 L 2019.62,455.077 L 2011.81,439.393 L 2001.26,425.413 L 1988.31,413.611 L 1973.42,404.389 L 1957.08,398.061 L 1939.86,394.843 L 1922.34,394.843 L 1914.01,396.387 L 1816.47,409.409 L 1738.87,409.409 L 1734.5,408.379 L 1682.19,382.221 L 1678.16,378.475 L 1676.79,373.145 L 1678.53,367.923 L 1682.81,364.469 L 1731.79,351.539 L 1734.27,351.219 L 2124.01,351.219 L 2129.29,352.769 L 2130.6,353.781 L 2168.05,388.055 L 2170.89,392.763 L 2171.72,400.195 L 2175.68,410.813 L 2182.48,419.885 L 2191.55,426.677 L 2201.94,430.551 L 2206.34,433.847 L 2208.26,439.003 L 2207.09,444.379 L 2205.43,446.603 L 2195.82,456.215 L 2185.15,471.451 L 2177.29,488.307 L 2172.78,505.117 L 2213.97,505.117 L 2216.42,497.581 L 2223.41,485.463 L 2232.77,475.065 L 2244.09,466.841 L 2256.88,461.15 L 2270.56,458.241 L 2284.56,458.241 L 2298.24,461.15 L 2311.02,466.841 L 2322.34,475.065 L 2331.71,485.463 L 2338.7,497.581 L 2341.15,505.117 L 2382.33,505.117 L 2377.83,488.307 L 2369.97,471.449 L 2359.3,456.213 L 2349.69,446.603 L 2347.05,441.775 L 2347.44,436.287 L 2350.74,431.883 L 2353.18,430.551 L 2363.57,426.677 L 2372.64,419.885 L 2379.43,410.813 L 2383.39,400.195 L 2383.9,395.501 L 2383.9,254.105 L 2383.39,249.411 L 2379.43,238.791 L 2372.64,229.721 L 2363.57,222.929 L 2352.95,218.969 L 2348.26,218.465 L 2292.76,218.465 L 2265.86,216.579 L 2262.74,215.855 L 2253.75,212.133 L 2240.05,209.409 L 2151.54,209.409 L 2145.85,209.093 L 2138.93,209.409 L 1734.27,209.409 L 1731.79,209.089 L 1618.24,179.083 L 1600.39,177.521 L 1582.54,179.083 L 1565.23,183.721 L 1549,191.293 L 1534.32,201.571 L 1521.65,214.241 L 1511.37,228.919 L 1503.8,245.157 L 1499.16,262.465 L 1497.6,280.315M 2100.35,1389.47 L 2102.85,1408.41 L 2107.79,1426.86 L 2115.1,1444.5 L 2124.65,1461.04 L 2136.28,1476.2 L 2149.78,1489.7 L 2164.94,1501.33 L 2181.48,1510.88 L 2199.12,1518.19 L 2217.57,1523.14 L 2236.51,1525.63 L 2255.61,1525.63 L 2274.55,1523.14 L 2293,1518.19 L 2310.65,1510.88 L 2327.19,1501.33 L 2342.34,1489.7 L 2355.85,1476.2 L 2367.47,1461.04 L 2377.02,1444.5 L 2384.33,1426.86 L 2389.28,1408.41 L 2391.77,1389.47 L 2391.77,1370.37 L 2389.28,1351.43 L 2384.33,1332.98 L 2377.02,1315.34 L 2367.47,1298.79 L 2355.85,1283.64 L 2342.34,1270.13 L 2327.19,1258.51 L 2310.64,1248.96 L 2293,1241.65 L 2274.55,1236.7 L 2255.61,1234.21 L 2236.51,1234.21 L 2217.57,1236.7 L 2199.12,1241.65 L 2181.48,1248.96 L 2164.94,1258.51 L 2149.78,1270.14 L 2136.28,1283.64 L 2124.65,1298.79 L 2115.1,1315.34 L 2107.79,1332.98 L 2102.85,1351.43 L 2100.35,1370.37 L 2100.35,1389.47M 2172.78,544.487 L 2177.29,561.297 L 2185.15,578.155 L 2195.82,593.391 L 2208.97,606.543 L 2224.2,617.213 L 2241.06,625.073 L 2257.87,629.577 L 2257.87,588.668 L 2244.09,582.765 L 2232.77,574.541 L 2223.41,564.143 L 2216.42,552.026 L 2213.97,544.487 L 2172.78,544.487M 2297.24,629.577 L 2314.05,625.073 L 2330.91,617.213 L 2346.15,606.543 L 2359.3,593.391 L 2369.97,578.155 L 2377.83,561.299 L 2382.33,544.487 L 2341.15,544.487 L 2338.7,552.026 L 2331.71,564.143 L 2322.34,574.541 L 2311.02,582.765 L 2297.24,588.669 L 2297.24,629.577 z " style="fill-opacity:1.000000;fill:rgb(205,186,171);stroke:rgb(0,0,0);stroke-width:2"/></g>
<g fill-rule="evenodd"><path d="M 1533.66,1061.61 L 1535.38,1045.24 L 1540.47,1029.59 L 1548.7,1015.33 L 1559.71,1003.1 L 1573.03,993.423 L 1588.07,986.728 L 1604.17,983.305 L 1620.63,983.305 L 1636.73,986.728 L 1642.62,989.347 L 1643.34,989.331 L 1646.2,990.942 L 1651.77,993.423 L 1655.99,996.489 L 1764.1,1057.87 L 1821.3,1057.87 L 1909.26,1038.61 L 1909.98,1038.77 L 1914.07,1036.95 L 1925.34,1034.55 L 1936.86,1034.55 L 1948.13,1036.95 L 1958.66,1041.64 L 1967.98,1048.41 L 1975.69,1056.97 L 1981.46,1066.95 L 1985.02,1077.91 L 1986.22,1089.37 L 1985.02,1100.83 L 1981.46,1111.79 L 1975.69,1121.77 L 1967.98,1130.33 L 1958.66,1137.1 L 1948.13,1141.79 L 1936.86,1144.19 L 1925.34,1144.19 L 1914.07,1141.79 L 1909.93,1139.95 L 1909.26,1140.13 L 1821.36,1120.86 L 1763.77,1120.86 L 1687.49,1130.72 L 1683.47,1206.01 L 1683.47,1356.3 L 1714.97,1356.3 L 1714.97,1482.28 L 1588.99,1482.28 L 1588.99,1356.3 L 1620.48,1356.3 L 1620.48,1206.59 L 1557.17,1117.92 L 1557.05,1117.17 L 1548.7,1107.9 L 1540.47,1093.64 L 1535.38,1077.99 L 1533.66,1061.61 z " style="fill-opacity:1.000000;fill:rgb(242,251,227);stroke:rgb(0,0,0);stroke-width:2"/></g>
<g fill-rule="evenodd"><path d="M 1537.4,543.307 L 1537.4,417.323 L 1663.39,417.323 L 1663.39,417.595 L 1663.98,417.619 L 1726.09,448.818 L 1823.25,448.818 L 1919.33,435.832 L 1925.34,434.554 L 1936.86,434.554 L 1948.13,436.95 L 1958.66,441.636 L 1967.98,448.409 L 1975.69,456.972 L 1981.46,466.952 L 1985.02,477.91 L 1986.22,489.37 L 1985.02,500.83 L 1981.46,511.789 L 1975.69,521.768 L 1967.98,530.331 L 1958.66,537.104 L 1948.13,541.791 L 1936.86,544.186 L 1925.34,544.186 L 1914.07,541.791 L 1909.9,539.936 L 1909.2,540.029 L 1823.06,511.811 L 1726.14,511.811 L 1663.98,543.009 L 1663.39,543.051 L 1663.39,543.307 L 1537.4,543.307 z " style="fill-opacity:1.000000;fill:rgb(70,124,194);stroke:rgb(0,0,0);stroke-width:2"/></g>
<g fill-rule="evenodd"><path d="M 1537.4,280.315 L 1538.78,267.218 L 1542.85,254.694 L 1549.43,243.289 L 1558.24,233.503 L 1568.9,225.762 L 1580.93,220.406 L 1593.81,217.668 L 1606.98,217.668 L 1619.86,220.406 L 1624.55,222.496 L 1625.27,222.321 L 1725.93,248.818 L 2233.07,248.818 L 2239.22,249.424 L 2245.12,251.216 L 2250.57,254.126 L 2252.38,255.617 L 2287.58,257.874 L 2344.49,257.874 L 2344.49,391.732 L 2210.63,391.732 L 2210.63,372.774 L 2210.08,372.565 L 2143.87,311.811 L 1726,311.811 L 1625.27,338.309 L 1624.52,338.149 L 1619.86,340.224 L 1606.98,342.962 L 1593.81,342.962 L 1580.93,340.224 L 1568.9,334.868 L 1558.24,327.127 L 1549.43,317.341 L 1542.85,305.936 L 1538.78,293.412 L 1537.4,280.315 z " style="fill-opacity:1.000000;fill:rgb(84,248,27);stroke:rgb(0,0,0);stroke-width:2"/></g>
</svg>
