%TF.GenerationSoftware,KiCad,Pcbnew,8.0.7*%
%TF.CreationDate,2025-01-25T10:49:13-05:00*%
%TF.ProjectId,isolated_probe,69736f6c-6174-4656-945f-70726f62652e,rev?*%
%TF.SameCoordinates,PX90013c0PY5d75c80*%
%TF.FileFunction,Copper,L2,Bot*%
%TF.FilePolarity,Positive*%
%FSLAX46Y46*%
G04 Gerber Fmt 4.6, Leading zero omitted, Abs format (unit mm)*
G04 Created by KiCad (PCBNEW 8.0.7) date 2025-01-25 10:49:13*
%MOMM*%
%LPD*%
G01*
G04 APERTURE LIST*
%TA.AperFunction,ComponentPad*%
%ADD10R,1.600000X1.600000*%
%TD*%
%TA.AperFunction,ComponentPad*%
%ADD11C,1.600000*%
%TD*%
%TA.AperFunction,ComponentPad*%
%ADD12C,1.400000*%
%TD*%
%TA.AperFunction,ComponentPad*%
%ADD13O,1.400000X1.400000*%
%TD*%
%TA.AperFunction,ComponentPad*%
%ADD14O,1.600000X1.600000*%
%TD*%
%TA.AperFunction,ComponentPad*%
%ADD15R,1.700000X1.700000*%
%TD*%
%TA.AperFunction,ComponentPad*%
%ADD16O,1.700000X1.700000*%
%TD*%
%TA.AperFunction,ComponentPad*%
%ADD17R,2.000000X2.000000*%
%TD*%
%TA.AperFunction,ComponentPad*%
%ADD18C,2.000000*%
%TD*%
%TA.AperFunction,Conductor*%
%ADD19C,0.800000*%
%TD*%
G04 APERTURE END LIST*
D10*
%TO.P,C1,1*%
%TO.N,+5V*%
X14455113Y-18000000D03*
D11*
%TO.P,C1,2*%
%TO.N,GND*%
X11955113Y-18000000D03*
%TD*%
D10*
%TO.P,C2,1*%
%TO.N,/+5V_ISOLATED*%
X20955113Y-18000000D03*
D11*
%TO.P,C2,2*%
%TO.N,GND1*%
X18455113Y-18000000D03*
%TD*%
D12*
%TO.P,R2,1*%
%TO.N,Net-(R2-Pad1)*%
X24500000Y-6190000D03*
D13*
%TO.P,R2,2*%
%TO.N,/+5V_ISOLATED*%
X24500000Y-13810000D03*
%TD*%
D12*
%TO.P,R1,1*%
%TO.N,/PROBE*%
X8500000Y-6190000D03*
D13*
%TO.P,R1,2*%
%TO.N,+5V*%
X8500000Y-13810000D03*
%TD*%
D10*
%TO.P,U2,1*%
%TO.N,Net-(R2-Pad1)*%
X20300000Y-6075000D03*
D14*
%TO.P,U2,2*%
%TO.N,/PROBE_ISOLATED*%
X20300000Y-3535000D03*
%TO.P,U2,3*%
%TO.N,GND*%
X12680000Y-3535000D03*
%TO.P,U2,4*%
%TO.N,/PROBE*%
X12680000Y-6075000D03*
%TD*%
D15*
%TO.P,J2,1,Pin_1*%
%TO.N,/PROBE_ISOLATED*%
X28900000Y-4100000D03*
D16*
%TO.P,J2,2,Pin_2*%
%TO.N,GND1*%
X28900000Y-6640000D03*
%TD*%
D15*
%TO.P,J1,1,Pin_1*%
%TO.N,+5V*%
X4000000Y-9080000D03*
D16*
%TO.P,J1,2,Pin_2*%
%TO.N,/PROBE*%
X4000000Y-6540000D03*
%TO.P,J1,3,Pin_3*%
%TO.N,GND*%
X4000000Y-4000000D03*
%TD*%
D17*
%TO.P,U1,1,-Vin*%
%TO.N,GND*%
X12832500Y-13457500D03*
D18*
%TO.P,U1,2,+Vin*%
%TO.N,+5V*%
X15372500Y-13457500D03*
%TO.P,U1,3,-Vout*%
%TO.N,GND1*%
X17912500Y-13457500D03*
%TO.P,U1,4,+Vout*%
%TO.N,/+5V_ISOLATED*%
X20452500Y-13457500D03*
%TD*%
D19*
%TO.N,+5V*%
X14000000Y-20100000D02*
X10000000Y-20100000D01*
X14455113Y-19644887D02*
X14000000Y-20100000D01*
X14455113Y-18000000D02*
X14455113Y-19644887D01*
X10000000Y-20100000D02*
X8500000Y-18600000D01*
X8500000Y-18600000D02*
X8500000Y-13810000D01*
X8500000Y-13810000D02*
X5510000Y-13810000D01*
X5510000Y-13810000D02*
X4000000Y-12300000D01*
X4000000Y-12300000D02*
X4000000Y-9080000D01*
X15372500Y-13457500D02*
X15372500Y-17082613D01*
X15372500Y-17082613D02*
X14455113Y-18000000D01*
%TO.N,/+5V_ISOLATED*%
X24500000Y-13810000D02*
X20805000Y-13810000D01*
X20805000Y-13810000D02*
X20452500Y-13457500D01*
X20955113Y-18000000D02*
X20955113Y-13960113D01*
X20955113Y-13960113D02*
X20452500Y-13457500D01*
%TO.N,/PROBE*%
X4000000Y-6540000D02*
X8150000Y-6540000D01*
X8150000Y-6540000D02*
X8500000Y-6190000D01*
X12680000Y-6075000D02*
X8615000Y-6075000D01*
X8615000Y-6075000D02*
X8500000Y-6190000D01*
%TO.N,Net-(R2-Pad1)*%
X20300000Y-6075000D02*
X24385000Y-6075000D01*
X24385000Y-6075000D02*
X24500000Y-6190000D01*
%TO.N,/PROBE_ISOLATED*%
X20300000Y-3535000D02*
X28335000Y-3535000D01*
X28335000Y-3535000D02*
X28900000Y-4100000D01*
%TD*%
%TA.AperFunction,Conductor*%
%TO.N,GND*%
G36*
X16343039Y-1520185D02*
G01*
X16388794Y-1572989D01*
X16400000Y-1624500D01*
X16400000Y-12102153D01*
X16380315Y-12169192D01*
X16327511Y-12214947D01*
X16258353Y-12224891D01*
X16199839Y-12200007D01*
X16199738Y-12199928D01*
X16196009Y-12197026D01*
X16196008Y-12197025D01*
X15977311Y-12078672D01*
X15977302Y-12078669D01*
X15742116Y-11997929D01*
X15496835Y-11957000D01*
X15248165Y-11957000D01*
X15002883Y-11997929D01*
X14767694Y-12078670D01*
X14767686Y-12078673D01*
X14699432Y-12115610D01*
X14631103Y-12130204D01*
X14565731Y-12105540D01*
X14535422Y-12072526D01*
X14461922Y-11955551D01*
X14334448Y-11828077D01*
X14181801Y-11732163D01*
X14011641Y-11672622D01*
X13877430Y-11657500D01*
X13232500Y-11657500D01*
X13232500Y-13150394D01*
X13139507Y-13057401D01*
X13025493Y-12991575D01*
X12898326Y-12957500D01*
X12766674Y-12957500D01*
X12639507Y-12991575D01*
X12525493Y-13057401D01*
X12432401Y-13150493D01*
X12366575Y-13264507D01*
X12332500Y-13391674D01*
X12332500Y-13523326D01*
X12366575Y-13650493D01*
X12432401Y-13764507D01*
X12525493Y-13857599D01*
X12639507Y-13923425D01*
X12766674Y-13957500D01*
X12898326Y-13957500D01*
X13025493Y-13923425D01*
X13139507Y-13857599D01*
X13232500Y-13764606D01*
X13232500Y-15257500D01*
X13877430Y-15257500D01*
X13877430Y-15257499D01*
X14011641Y-15242377D01*
X14181798Y-15182837D01*
X14181806Y-15182833D01*
X14188501Y-15178627D01*
X14255737Y-15159625D01*
X14322573Y-15179991D01*
X14367788Y-15233258D01*
X14372441Y-15245407D01*
X14381811Y-15274334D01*
X14465966Y-15534136D01*
X14472000Y-15572345D01*
X14472000Y-16575500D01*
X14452315Y-16642539D01*
X14399511Y-16688294D01*
X14348000Y-16699500D01*
X13607242Y-16699500D01*
X13607236Y-16699501D01*
X13547629Y-16705908D01*
X13412784Y-16756202D01*
X13412777Y-16756206D01*
X13297568Y-16842452D01*
X13297565Y-16842455D01*
X13211319Y-16957664D01*
X13211315Y-16957671D01*
X13161021Y-17092517D01*
X13154614Y-17152116D01*
X13154613Y-17152135D01*
X13154613Y-17314823D01*
X13134928Y-17381862D01*
X13118294Y-17402504D01*
X12325636Y-18195161D01*
X12294502Y-18212161D01*
X12327854Y-18154394D01*
X12355113Y-18052661D01*
X12355113Y-17947339D01*
X12327854Y-17845606D01*
X12275193Y-17754394D01*
X12200719Y-17679920D01*
X12109507Y-17627259D01*
X12007774Y-17600000D01*
X11902452Y-17600000D01*
X11800719Y-17627259D01*
X11709507Y-17679920D01*
X11635033Y-17754394D01*
X11582372Y-17845606D01*
X11555113Y-17947339D01*
X11555113Y-18052661D01*
X11582372Y-18154394D01*
X11618486Y-18216946D01*
X11584589Y-18195161D01*
X10576655Y-17187226D01*
X10576654Y-17187226D01*
X10525096Y-17271364D01*
X10525090Y-17271376D01*
X10428716Y-17504043D01*
X10369925Y-17748927D01*
X10350165Y-18000000D01*
X10369925Y-18251072D01*
X10428716Y-18495956D01*
X10525093Y-18728631D01*
X10656681Y-18943362D01*
X10656684Y-18943367D01*
X10700756Y-18994968D01*
X10729327Y-19058729D01*
X10718890Y-19127815D01*
X10672760Y-19180291D01*
X10606466Y-19199500D01*
X10424361Y-19199500D01*
X10357322Y-19179815D01*
X10336680Y-19163181D01*
X9436819Y-18263319D01*
X9403334Y-18201996D01*
X9400500Y-18175638D01*
X9400500Y-16621541D01*
X11142339Y-16621541D01*
X11142339Y-16621542D01*
X11955112Y-17434314D01*
X12767885Y-16621542D01*
X12683742Y-16569980D01*
X12683736Y-16569977D01*
X12451069Y-16473603D01*
X12206185Y-16414812D01*
X11955113Y-16395052D01*
X11704040Y-16414812D01*
X11459156Y-16473603D01*
X11226489Y-16569977D01*
X11226477Y-16569983D01*
X11142339Y-16621541D01*
X9400500Y-16621541D01*
X9400500Y-15300737D01*
X9403341Y-15274344D01*
X9571559Y-14502430D01*
X11032500Y-14502430D01*
X11047622Y-14636641D01*
X11107163Y-14806801D01*
X11203077Y-14959448D01*
X11330551Y-15086922D01*
X11483198Y-15182836D01*
X11653358Y-15242377D01*
X11787569Y-15257499D01*
X11787570Y-15257500D01*
X12432500Y-15257500D01*
X12432500Y-13857500D01*
X11032500Y-13857500D01*
X11032500Y-14502430D01*
X9571559Y-14502430D01*
X9637580Y-14199477D01*
X9639446Y-14192043D01*
X9685115Y-14031536D01*
X9705643Y-13810000D01*
X9685115Y-13588464D01*
X9624229Y-13374472D01*
X9569473Y-13264507D01*
X9525061Y-13175316D01*
X9525056Y-13175308D01*
X9390979Y-12997761D01*
X9226562Y-12847876D01*
X9226560Y-12847874D01*
X9037404Y-12730754D01*
X9037398Y-12730752D01*
X9026544Y-12726547D01*
X8829940Y-12650382D01*
X8611243Y-12609500D01*
X8388757Y-12609500D01*
X8279408Y-12629941D01*
X8170058Y-12650382D01*
X8170050Y-12650385D01*
X8125563Y-12667619D01*
X8107174Y-12673148D01*
X7035663Y-12906656D01*
X7009260Y-12909500D01*
X5934361Y-12909500D01*
X5867322Y-12889815D01*
X5846680Y-12873181D01*
X5386069Y-12412569D01*
X11032500Y-12412569D01*
X11032500Y-13057500D01*
X12432500Y-13057500D01*
X12432500Y-11657500D01*
X11787570Y-11657500D01*
X11653358Y-11672622D01*
X11483198Y-11732163D01*
X11330551Y-11828077D01*
X11203077Y-11955551D01*
X11107163Y-12108198D01*
X11047622Y-12278358D01*
X11032500Y-12412569D01*
X5386069Y-12412569D01*
X4936819Y-11963319D01*
X4903334Y-11901996D01*
X4900500Y-11875638D01*
X4900500Y-10945797D01*
X4914910Y-10887779D01*
X5289473Y-10180270D01*
X5289638Y-10179957D01*
X5290383Y-10178574D01*
X5293789Y-10172339D01*
X5293796Y-10172331D01*
X5308746Y-10132244D01*
X5309064Y-10131405D01*
X5336506Y-10059668D01*
X5336508Y-10059664D01*
X5336510Y-10059652D01*
X5337640Y-10056063D01*
X5337695Y-10056080D01*
X5340346Y-10047520D01*
X5344091Y-10037483D01*
X5350500Y-9977873D01*
X5350499Y-8182128D01*
X5344091Y-8122517D01*
X5293796Y-7987669D01*
X5293795Y-7987668D01*
X5293793Y-7987664D01*
X5207547Y-7872456D01*
X5207548Y-7872456D01*
X5207546Y-7872454D01*
X5147054Y-7827170D01*
X5105185Y-7771238D01*
X5100201Y-7701546D01*
X5133686Y-7640223D01*
X5187902Y-7608506D01*
X5770924Y-7445101D01*
X5804388Y-7440500D01*
X7193669Y-7440500D01*
X7206555Y-7441171D01*
X7239859Y-7444651D01*
X7239866Y-7444650D01*
X7239870Y-7444651D01*
X7344706Y-7440593D01*
X7349502Y-7440500D01*
X8238693Y-7440500D01*
X8238694Y-7440499D01*
X8412666Y-7405895D01*
X8412680Y-7405888D01*
X8418491Y-7404127D01*
X8418787Y-7405104D01*
X8452505Y-7397716D01*
X8508319Y-7395556D01*
X8552161Y-7391943D01*
X8552163Y-7391942D01*
X8557919Y-7391468D01*
X8557935Y-7391665D01*
X8571205Y-7390500D01*
X8611241Y-7390500D01*
X8611243Y-7390500D01*
X8829940Y-7349618D01*
X8900039Y-7322460D01*
X8923552Y-7315928D01*
X8934875Y-7313957D01*
X9954057Y-6981610D01*
X9992500Y-6975500D01*
X10979799Y-6975500D01*
X11011235Y-6979550D01*
X12213644Y-7294688D01*
X12228380Y-7300006D01*
X12228423Y-7299889D01*
X12233498Y-7301736D01*
X12233504Y-7301739D01*
X12233509Y-7301740D01*
X12233511Y-7301741D01*
X12279099Y-7313956D01*
X12453308Y-7360635D01*
X12615230Y-7374801D01*
X12679998Y-7380468D01*
X12680000Y-7380468D01*
X12680002Y-7380468D01*
X12736673Y-7375509D01*
X12906692Y-7360635D01*
X13126496Y-7301739D01*
X13332734Y-7205568D01*
X13519139Y-7075047D01*
X13680047Y-6914139D01*
X13810568Y-6727734D01*
X13906739Y-6521496D01*
X13965635Y-6301692D01*
X13985468Y-6075000D01*
X13965635Y-5848308D01*
X13906739Y-5628504D01*
X13810568Y-5422266D01*
X13680047Y-5235861D01*
X13680045Y-5235858D01*
X13520210Y-5076023D01*
X13486725Y-5014700D01*
X13491709Y-4945008D01*
X13533581Y-4889075D01*
X13543102Y-4882614D01*
X13623366Y-4833429D01*
X13623367Y-4833428D01*
X13814869Y-4669869D01*
X13978428Y-4478367D01*
X13978431Y-4478362D01*
X14110019Y-4263631D01*
X14206396Y-4030956D01*
X14229433Y-3935000D01*
X12732661Y-3935000D01*
X12834394Y-3907741D01*
X12925606Y-3855080D01*
X13000080Y-3780606D01*
X13052741Y-3689394D01*
X13080000Y-3587661D01*
X13080000Y-3482339D01*
X13052741Y-3380606D01*
X13000080Y-3289394D01*
X12925606Y-3214920D01*
X12834394Y-3162259D01*
X12732661Y-3135000D01*
X13080000Y-3135000D01*
X14229433Y-3135000D01*
X14229432Y-3134999D01*
X14206396Y-3039043D01*
X14110019Y-2806368D01*
X13978431Y-2591637D01*
X13978428Y-2591632D01*
X13814869Y-2400130D01*
X13623367Y-2236571D01*
X13623362Y-2236568D01*
X13408631Y-2104980D01*
X13175956Y-2008603D01*
X13080000Y-1985567D01*
X13080000Y-3135000D01*
X12732661Y-3135000D01*
X12627339Y-3135000D01*
X12525606Y-3162259D01*
X12434394Y-3214920D01*
X12359920Y-3289394D01*
X12307259Y-3380606D01*
X12280000Y-3482339D01*
X12280000Y-3587661D01*
X12307259Y-3689394D01*
X12359920Y-3780606D01*
X12434394Y-3855080D01*
X12525606Y-3907741D01*
X12627339Y-3935000D01*
X11130567Y-3935000D01*
X11153603Y-4030956D01*
X11249980Y-4263631D01*
X11381568Y-4478362D01*
X11381571Y-4478367D01*
X11545130Y-4669869D01*
X11687830Y-4791747D01*
X11726023Y-4850254D01*
X11726522Y-4920122D01*
X11689168Y-4979168D01*
X11638736Y-5005986D01*
X11239002Y-5110753D01*
X11011231Y-5170449D01*
X10979796Y-5174500D01*
X9955999Y-5174500D01*
X9938743Y-5172725D01*
X9938676Y-5173227D01*
X9934289Y-5172637D01*
X9934287Y-5172637D01*
X9587550Y-5126057D01*
X8717109Y-5009123D01*
X8710835Y-5008116D01*
X8625277Y-4992123D01*
X8611243Y-4989500D01*
X8611242Y-4989500D01*
X8574061Y-4989500D01*
X8561648Y-4988877D01*
X8560045Y-4988715D01*
X8547073Y-4987410D01*
X8545550Y-4987308D01*
X8545530Y-4987307D01*
X8452012Y-4989117D01*
X8446310Y-4989500D01*
X8388757Y-4989500D01*
X8170060Y-5030382D01*
X8104463Y-5055794D01*
X7962602Y-5110751D01*
X7839805Y-5186783D01*
X7836962Y-5188491D01*
X7693424Y-5272138D01*
X7091968Y-5622636D01*
X7029537Y-5639500D01*
X5804390Y-5639500D01*
X5770926Y-5634899D01*
X5469857Y-5550517D01*
X5133003Y-5456105D01*
X5073764Y-5419058D01*
X5043957Y-5355866D01*
X5053047Y-5286590D01*
X5085937Y-5242416D01*
X5170331Y-5170336D01*
X5339008Y-4972841D01*
X5339009Y-4972840D01*
X5474707Y-4751400D01*
X5474709Y-4751397D01*
X5574097Y-4511452D01*
X5600854Y-4400000D01*
X4307106Y-4400000D01*
X4400099Y-4307007D01*
X4465925Y-4192993D01*
X4500000Y-4065826D01*
X4500000Y-3934174D01*
X4465925Y-3807007D01*
X4400099Y-3692993D01*
X4307106Y-3600000D01*
X4400000Y-3600000D01*
X5600854Y-3600000D01*
X5600853Y-3599999D01*
X5574097Y-3488547D01*
X5474709Y-3248602D01*
X5474707Y-3248599D01*
X5405093Y-3134999D01*
X11130567Y-3134999D01*
X11130567Y-3135000D01*
X12280000Y-3135000D01*
X12280000Y-1985567D01*
X12279999Y-1985567D01*
X12184043Y-2008603D01*
X11951368Y-2104980D01*
X11736637Y-2236568D01*
X11736632Y-2236571D01*
X11545130Y-2400130D01*
X11381571Y-2591632D01*
X11381568Y-2591637D01*
X11249980Y-2806368D01*
X11153603Y-3039043D01*
X11130567Y-3134999D01*
X5405093Y-3134999D01*
X5339009Y-3027159D01*
X5339008Y-3027158D01*
X5170333Y-2829666D01*
X4972841Y-2660991D01*
X4972840Y-2660990D01*
X4751400Y-2525292D01*
X4751397Y-2525290D01*
X4511452Y-2425902D01*
X4400000Y-2399146D01*
X4400000Y-3600000D01*
X4307106Y-3600000D01*
X4307007Y-3599901D01*
X4192993Y-3534075D01*
X4065826Y-3500000D01*
X3934174Y-3500000D01*
X3807007Y-3534075D01*
X3692993Y-3599901D01*
X3599901Y-3692993D01*
X3534075Y-3807007D01*
X3500000Y-3934174D01*
X3500000Y-4065826D01*
X3534075Y-4192993D01*
X3599901Y-4307007D01*
X3692894Y-4400000D01*
X2399146Y-4400000D01*
X2425902Y-4511452D01*
X2525290Y-4751397D01*
X2525292Y-4751400D01*
X2660990Y-4972840D01*
X2660991Y-4972841D01*
X2829666Y-5170333D01*
X3027158Y-5339008D01*
X3027160Y-5339009D01*
X3056695Y-5357109D01*
X3103571Y-5408921D01*
X3114993Y-5477851D01*
X3087335Y-5542014D01*
X3079586Y-5550517D01*
X2961505Y-5668597D01*
X2825965Y-5862169D01*
X2825964Y-5862171D01*
X2732401Y-6062816D01*
X2726721Y-6075000D01*
X2726098Y-6076335D01*
X2726094Y-6076344D01*
X2664938Y-6304586D01*
X2664936Y-6304596D01*
X2644341Y-6539999D01*
X2644341Y-6540000D01*
X2664936Y-6775403D01*
X2664938Y-6775413D01*
X2726094Y-7003655D01*
X2726096Y-7003659D01*
X2726097Y-7003663D01*
X2759383Y-7075045D01*
X2825965Y-7217830D01*
X2825967Y-7217834D01*
X2896127Y-7318032D01*
X2952523Y-7398574D01*
X2961501Y-7411395D01*
X2961506Y-7411402D01*
X3083430Y-7533326D01*
X3116915Y-7594649D01*
X3111931Y-7664341D01*
X3070059Y-7720274D01*
X3039083Y-7737189D01*
X2907669Y-7786203D01*
X2907664Y-7786206D01*
X2792455Y-7872452D01*
X2792452Y-7872455D01*
X2706206Y-7987664D01*
X2706202Y-7987671D01*
X2655908Y-8122517D01*
X2649501Y-8182116D01*
X2649501Y-8182123D01*
X2649500Y-8182135D01*
X2649500Y-9977870D01*
X2649501Y-9977876D01*
X2655908Y-10037483D01*
X2706203Y-10172329D01*
X2709776Y-10178875D01*
X2710526Y-10180270D01*
X3085090Y-10887779D01*
X3099500Y-10945797D01*
X3099500Y-12388696D01*
X3134103Y-12562659D01*
X3134105Y-12562666D01*
X3146093Y-12591605D01*
X3146094Y-12591609D01*
X3201984Y-12726542D01*
X3201985Y-12726543D01*
X3201987Y-12726547D01*
X3211573Y-12740893D01*
X3248979Y-12796874D01*
X3248979Y-12796875D01*
X3300537Y-12874038D01*
X3300540Y-12874041D01*
X4810536Y-14384035D01*
X4928931Y-14502430D01*
X4935966Y-14509465D01*
X5083446Y-14608009D01*
X5083459Y-14608016D01*
X5206363Y-14658923D01*
X5247334Y-14675894D01*
X5247336Y-14675894D01*
X5247341Y-14675896D01*
X5421304Y-14710499D01*
X5421307Y-14710500D01*
X5421309Y-14710500D01*
X7009266Y-14710500D01*
X7035660Y-14713342D01*
X7418483Y-14796768D01*
X7479788Y-14830273D01*
X7513231Y-14891519D01*
X7587704Y-15233258D01*
X7596656Y-15274334D01*
X7599500Y-15300737D01*
X7599500Y-18688696D01*
X7634103Y-18862658D01*
X7634105Y-18862666D01*
X7668046Y-18944606D01*
X7668046Y-18944607D01*
X7701984Y-19026542D01*
X7701985Y-19026544D01*
X7761063Y-19114960D01*
X7800537Y-19174038D01*
X7800540Y-19174041D01*
X8914320Y-20287819D01*
X8947805Y-20349142D01*
X8942821Y-20418833D01*
X8900950Y-20474767D01*
X8835485Y-20499184D01*
X8826639Y-20499500D01*
X4503246Y-20499500D01*
X4496756Y-20499330D01*
X4493970Y-20499184D01*
X4491815Y-20499071D01*
X4192953Y-20483407D01*
X4180046Y-20482050D01*
X3882794Y-20434971D01*
X3870097Y-20432273D01*
X3579376Y-20354374D01*
X3567033Y-20350363D01*
X3286064Y-20242510D01*
X3274206Y-20237231D01*
X3006036Y-20100591D01*
X2994796Y-20094101D01*
X2742391Y-19930187D01*
X2731890Y-19922558D01*
X2497989Y-19733149D01*
X2488344Y-19724464D01*
X2275535Y-19511655D01*
X2266850Y-19502010D01*
X2077441Y-19268109D01*
X2069812Y-19257608D01*
X2060842Y-19243796D01*
X1905896Y-19005199D01*
X1899408Y-18993963D01*
X1874259Y-18944606D01*
X1762767Y-18725790D01*
X1757489Y-18713935D01*
X1686994Y-18530289D01*
X1649635Y-18432965D01*
X1645625Y-18420623D01*
X1632795Y-18372741D01*
X1567724Y-18129896D01*
X1565028Y-18117205D01*
X1561685Y-18096100D01*
X1517949Y-17819953D01*
X1516592Y-17807046D01*
X1500670Y-17503243D01*
X1500500Y-17496753D01*
X1500500Y-17378711D01*
X2649500Y-17378711D01*
X2649500Y-17621288D01*
X2681161Y-17861785D01*
X2743947Y-18096104D01*
X2798166Y-18227000D01*
X2836776Y-18320212D01*
X2958064Y-18530289D01*
X2958066Y-18530292D01*
X2958067Y-18530293D01*
X3105733Y-18722736D01*
X3105739Y-18722743D01*
X3277256Y-18894260D01*
X3277263Y-18894266D01*
X3341253Y-18943367D01*
X3469711Y-19041936D01*
X3679788Y-19163224D01*
X3903900Y-19256054D01*
X4138211Y-19318838D01*
X4318586Y-19342584D01*
X4378711Y-19350500D01*
X4378712Y-19350500D01*
X4621289Y-19350500D01*
X4669388Y-19344167D01*
X4861789Y-19318838D01*
X5096100Y-19256054D01*
X5320212Y-19163224D01*
X5530289Y-19041936D01*
X5722738Y-18894265D01*
X5894265Y-18722738D01*
X6041936Y-18530289D01*
X6163224Y-18320212D01*
X6256054Y-18096100D01*
X6318838Y-17861789D01*
X6350500Y-17621288D01*
X6350500Y-17378712D01*
X6318838Y-17138211D01*
X6256054Y-16903900D01*
X6163224Y-16679788D01*
X6041936Y-16469711D01*
X5894265Y-16277262D01*
X5894260Y-16277256D01*
X5722743Y-16105739D01*
X5722736Y-16105733D01*
X5530293Y-15958067D01*
X5530292Y-15958066D01*
X5530289Y-15958064D01*
X5320212Y-15836776D01*
X5320205Y-15836773D01*
X5096104Y-15743947D01*
X4861785Y-15681161D01*
X4621289Y-15649500D01*
X4621288Y-15649500D01*
X4378712Y-15649500D01*
X4378711Y-15649500D01*
X4138214Y-15681161D01*
X3903895Y-15743947D01*
X3679794Y-15836773D01*
X3679785Y-15836777D01*
X3469706Y-15958067D01*
X3277263Y-16105733D01*
X3277256Y-16105739D01*
X3105739Y-16277256D01*
X3105733Y-16277263D01*
X2958067Y-16469706D01*
X2836777Y-16679785D01*
X2836773Y-16679794D01*
X2743947Y-16903895D01*
X2681161Y-17138214D01*
X2649500Y-17378711D01*
X1500500Y-17378711D01*
X1500500Y-3599999D01*
X2399146Y-3599999D01*
X2399146Y-3600000D01*
X3600000Y-3600000D01*
X3600000Y-2399146D01*
X3599999Y-2399146D01*
X3488547Y-2425902D01*
X3248602Y-2525290D01*
X3248599Y-2525292D01*
X3027159Y-2660990D01*
X3027158Y-2660991D01*
X2829666Y-2829666D01*
X2660991Y-3027158D01*
X2660990Y-3027159D01*
X2525292Y-3248599D01*
X2525290Y-3248602D01*
X2425902Y-3488547D01*
X2399146Y-3599999D01*
X1500500Y-3599999D01*
X1500500Y-3004427D01*
X1500816Y-2995581D01*
X1511318Y-2848748D01*
X1515130Y-2795436D01*
X1517646Y-2777938D01*
X1559356Y-2586199D01*
X1564333Y-2569248D01*
X1632911Y-2385385D01*
X1640259Y-2369298D01*
X1712733Y-2236571D01*
X1734291Y-2197089D01*
X1743845Y-2182221D01*
X1861448Y-2025123D01*
X1873020Y-2011769D01*
X2011769Y-1873020D01*
X2025123Y-1861448D01*
X2182221Y-1743845D01*
X2197089Y-1734291D01*
X2369298Y-1640258D01*
X2385385Y-1632911D01*
X2569248Y-1564333D01*
X2586199Y-1559356D01*
X2777938Y-1517646D01*
X2795436Y-1515130D01*
X2995582Y-1500816D01*
X3004428Y-1500500D01*
X16276000Y-1500500D01*
X16343039Y-1520185D01*
G37*
%TD.AperFunction*%
%TD*%
%TA.AperFunction,Conductor*%
%TO.N,GND1*%
G36*
X30004418Y-1500816D02*
G01*
X30204561Y-1515130D01*
X30222063Y-1517647D01*
X30413797Y-1559355D01*
X30430755Y-1564334D01*
X30592064Y-1624500D01*
X30614609Y-1632909D01*
X30630701Y-1640259D01*
X30802904Y-1734288D01*
X30817784Y-1743849D01*
X30974867Y-1861441D01*
X30988237Y-1873027D01*
X31126972Y-2011762D01*
X31138558Y-2025132D01*
X31256146Y-2182210D01*
X31265711Y-2197095D01*
X31359740Y-2369298D01*
X31367090Y-2385390D01*
X31435662Y-2569236D01*
X31440646Y-2586212D01*
X31482351Y-2777931D01*
X31484869Y-2795442D01*
X31499184Y-2995580D01*
X31499500Y-3004427D01*
X31499500Y-17496753D01*
X31499330Y-17503243D01*
X31483407Y-17807046D01*
X31482050Y-17819953D01*
X31434971Y-18117205D01*
X31432273Y-18129902D01*
X31354374Y-18420623D01*
X31350363Y-18432966D01*
X31242510Y-18713935D01*
X31237231Y-18725793D01*
X31100591Y-18993963D01*
X31094101Y-19005203D01*
X30930187Y-19257608D01*
X30922558Y-19268109D01*
X30733149Y-19502010D01*
X30724464Y-19511655D01*
X30511655Y-19724464D01*
X30502010Y-19733149D01*
X30268109Y-19922558D01*
X30257608Y-19930187D01*
X30005203Y-20094101D01*
X29993963Y-20100591D01*
X29725793Y-20237231D01*
X29713935Y-20242510D01*
X29432966Y-20350363D01*
X29420623Y-20354374D01*
X29129902Y-20432273D01*
X29117205Y-20434971D01*
X28819953Y-20482050D01*
X28807046Y-20483407D01*
X28503244Y-20499330D01*
X28496754Y-20499500D01*
X17024000Y-20499500D01*
X16956961Y-20479815D01*
X16911206Y-20427011D01*
X16900000Y-20375500D01*
X16900000Y-14823032D01*
X16919685Y-14755993D01*
X16972489Y-14710238D01*
X17041647Y-14700294D01*
X17084103Y-14716316D01*
X17084755Y-14715113D01*
X17307885Y-14835864D01*
X17307896Y-14835869D01*
X17543006Y-14916583D01*
X17788207Y-14957500D01*
X18036793Y-14957500D01*
X18281993Y-14916583D01*
X18517103Y-14835869D01*
X18517114Y-14835864D01*
X18735730Y-14717556D01*
X18735736Y-14717551D01*
X18782555Y-14681110D01*
X18782556Y-14681109D01*
X18041909Y-13940462D01*
X18105493Y-13923425D01*
X18219507Y-13857599D01*
X18312599Y-13764507D01*
X18378425Y-13650493D01*
X18395462Y-13586909D01*
X19135934Y-14327381D01*
X19147360Y-14326197D01*
X19216073Y-14338860D01*
X19260592Y-14378694D01*
X19261183Y-14378235D01*
X19263718Y-14381492D01*
X19263956Y-14381705D01*
X19264332Y-14382281D01*
X19264336Y-14382285D01*
X19327503Y-14450904D01*
X19337267Y-14462940D01*
X20031607Y-15437612D01*
X20054471Y-15503634D01*
X20054613Y-15509558D01*
X20054613Y-16617209D01*
X20034928Y-16684248D01*
X19982124Y-16730003D01*
X19973946Y-16733391D01*
X19912784Y-16756202D01*
X19912777Y-16756206D01*
X19797568Y-16842452D01*
X19797565Y-16842455D01*
X19711319Y-16957664D01*
X19711315Y-16957671D01*
X19661021Y-17092517D01*
X19654614Y-17152116D01*
X19654614Y-17152123D01*
X19654435Y-17155452D01*
X19652960Y-17155372D01*
X19634928Y-17216784D01*
X19582124Y-17262539D01*
X19538635Y-17270029D01*
X18855113Y-17953551D01*
X18855113Y-17947339D01*
X18827854Y-17845606D01*
X18775193Y-17754394D01*
X18700719Y-17679920D01*
X18609507Y-17627259D01*
X18507774Y-17600000D01*
X18501558Y-17600000D01*
X19180585Y-16920974D01*
X19107591Y-16869863D01*
X18901444Y-16773735D01*
X18901430Y-16773730D01*
X18681723Y-16714860D01*
X18681712Y-16714858D01*
X18455115Y-16695034D01*
X18455111Y-16695034D01*
X18228513Y-16714858D01*
X18228502Y-16714860D01*
X18008795Y-16773730D01*
X18008786Y-16773734D01*
X17802629Y-16869866D01*
X17802625Y-16869868D01*
X17729639Y-16920973D01*
X17729639Y-16920974D01*
X18408666Y-17600000D01*
X18402452Y-17600000D01*
X18300719Y-17627259D01*
X18209507Y-17679920D01*
X18135033Y-17754394D01*
X18082372Y-17845606D01*
X18055113Y-17947339D01*
X18055113Y-17953552D01*
X17376087Y-17274526D01*
X17376086Y-17274526D01*
X17324981Y-17347512D01*
X17324979Y-17347516D01*
X17228847Y-17553673D01*
X17228843Y-17553682D01*
X17169973Y-17773389D01*
X17169971Y-17773400D01*
X17150147Y-17999997D01*
X17150147Y-18000002D01*
X17169971Y-18226599D01*
X17169973Y-18226610D01*
X17228843Y-18446317D01*
X17228848Y-18446331D01*
X17324976Y-18652478D01*
X17376087Y-18725472D01*
X18055113Y-18046446D01*
X18055113Y-18052661D01*
X18082372Y-18154394D01*
X18135033Y-18245606D01*
X18209507Y-18320080D01*
X18300719Y-18372741D01*
X18402452Y-18400000D01*
X18408666Y-18400000D01*
X17729639Y-19079025D01*
X17802626Y-19130132D01*
X17802634Y-19130136D01*
X18008781Y-19226264D01*
X18008795Y-19226269D01*
X18228502Y-19285139D01*
X18228513Y-19285141D01*
X18455111Y-19304966D01*
X18455115Y-19304966D01*
X18681712Y-19285141D01*
X18681723Y-19285139D01*
X18901430Y-19226269D01*
X18901444Y-19226264D01*
X19107591Y-19130136D01*
X19180584Y-19079024D01*
X18501560Y-18400000D01*
X18507774Y-18400000D01*
X18609507Y-18372741D01*
X18700719Y-18320080D01*
X18775193Y-18245606D01*
X18827854Y-18154394D01*
X18855113Y-18052661D01*
X18855113Y-18046447D01*
X19539310Y-18730644D01*
X19588305Y-18740491D01*
X19638488Y-18789106D01*
X19653162Y-18844632D01*
X19654212Y-18844576D01*
X19654259Y-18844571D01*
X19654259Y-18844573D01*
X19654437Y-18844564D01*
X19654614Y-18847876D01*
X19661021Y-18907483D01*
X19711315Y-19042328D01*
X19711319Y-19042335D01*
X19797565Y-19157544D01*
X19797568Y-19157547D01*
X19912777Y-19243793D01*
X19912784Y-19243797D01*
X20047630Y-19294091D01*
X20047629Y-19294091D01*
X20054557Y-19294835D01*
X20107240Y-19300500D01*
X21802985Y-19300499D01*
X21862596Y-19294091D01*
X21997444Y-19243796D01*
X22112659Y-19157546D01*
X22198909Y-19042331D01*
X22249204Y-18907483D01*
X22255613Y-18847873D01*
X22255612Y-17378711D01*
X26649500Y-17378711D01*
X26649500Y-17621288D01*
X26681161Y-17861785D01*
X26743947Y-18096104D01*
X26757947Y-18129902D01*
X26836776Y-18320212D01*
X26958064Y-18530289D01*
X26958066Y-18530292D01*
X26958067Y-18530293D01*
X27105733Y-18722736D01*
X27105739Y-18722743D01*
X27277256Y-18894260D01*
X27277262Y-18894265D01*
X27469711Y-19041936D01*
X27679788Y-19163224D01*
X27903900Y-19256054D01*
X28138211Y-19318838D01*
X28318586Y-19342584D01*
X28378711Y-19350500D01*
X28378712Y-19350500D01*
X28621289Y-19350500D01*
X28669388Y-19344167D01*
X28861789Y-19318838D01*
X29096100Y-19256054D01*
X29320212Y-19163224D01*
X29530289Y-19041936D01*
X29722738Y-18894265D01*
X29894265Y-18722738D01*
X30041936Y-18530289D01*
X30163224Y-18320212D01*
X30256054Y-18096100D01*
X30318838Y-17861789D01*
X30350500Y-17621288D01*
X30350500Y-17378712D01*
X30318838Y-17138211D01*
X30256054Y-16903900D01*
X30163224Y-16679788D01*
X30041936Y-16469711D01*
X29894265Y-16277262D01*
X29894260Y-16277256D01*
X29722743Y-16105739D01*
X29722736Y-16105733D01*
X29530293Y-15958067D01*
X29530292Y-15958066D01*
X29530289Y-15958064D01*
X29320212Y-15836776D01*
X29320205Y-15836773D01*
X29096104Y-15743947D01*
X28861785Y-15681161D01*
X28621289Y-15649500D01*
X28621288Y-15649500D01*
X28378712Y-15649500D01*
X28378711Y-15649500D01*
X28138214Y-15681161D01*
X27903895Y-15743947D01*
X27679794Y-15836773D01*
X27679785Y-15836777D01*
X27469706Y-15958067D01*
X27277263Y-16105733D01*
X27277256Y-16105739D01*
X27105739Y-16277256D01*
X27105733Y-16277263D01*
X26958067Y-16469706D01*
X26836777Y-16679785D01*
X26836773Y-16679794D01*
X26743947Y-16903895D01*
X26681161Y-17138214D01*
X26649500Y-17378711D01*
X22255612Y-17378711D01*
X22255612Y-17152128D01*
X22249204Y-17092517D01*
X22198909Y-16957669D01*
X22198908Y-16957668D01*
X22198906Y-16957664D01*
X22112660Y-16842455D01*
X22112657Y-16842452D01*
X21997448Y-16756206D01*
X21997441Y-16756202D01*
X21936280Y-16733391D01*
X21880346Y-16691520D01*
X21855929Y-16626056D01*
X21855613Y-16617209D01*
X21855613Y-15353628D01*
X21857976Y-15329534D01*
X21860494Y-15316826D01*
X21883237Y-14886248D01*
X21906430Y-14820340D01*
X21961574Y-14777434D01*
X21991288Y-14769795D01*
X22436474Y-14712703D01*
X22439710Y-14712216D01*
X22441963Y-14711878D01*
X22460398Y-14710500D01*
X23009266Y-14710500D01*
X23035669Y-14713344D01*
X24107173Y-14946851D01*
X24125564Y-14952381D01*
X24170052Y-14969615D01*
X24170060Y-14969618D01*
X24388757Y-15010500D01*
X24388759Y-15010500D01*
X24611241Y-15010500D01*
X24611243Y-15010500D01*
X24829940Y-14969618D01*
X25037401Y-14889247D01*
X25226562Y-14772124D01*
X25390981Y-14622236D01*
X25525058Y-14444689D01*
X25624229Y-14245528D01*
X25685115Y-14031536D01*
X25705643Y-13810000D01*
X25685115Y-13588464D01*
X25624229Y-13374472D01*
X25555969Y-13237388D01*
X25525061Y-13175316D01*
X25525056Y-13175308D01*
X25390979Y-12997761D01*
X25226562Y-12847876D01*
X25226560Y-12847874D01*
X25037404Y-12730754D01*
X25037398Y-12730752D01*
X24829940Y-12650382D01*
X24611243Y-12609500D01*
X24388757Y-12609500D01*
X24279408Y-12629941D01*
X24170058Y-12650382D01*
X24170050Y-12650385D01*
X24125563Y-12667619D01*
X24107174Y-12673148D01*
X23035663Y-12906656D01*
X23009260Y-12909500D01*
X22557114Y-12909500D01*
X22496000Y-12893394D01*
X21309050Y-12221071D01*
X21294003Y-12211031D01*
X21285155Y-12204144D01*
X21276009Y-12197026D01*
X21276008Y-12197025D01*
X21057312Y-12078673D01*
X21057311Y-12078672D01*
X21057310Y-12078672D01*
X20998491Y-12058479D01*
X20993910Y-12056804D01*
X20988299Y-12054625D01*
X20988283Y-12054621D01*
X20979576Y-12051985D01*
X20822116Y-11997929D01*
X20576835Y-11957000D01*
X20328165Y-11957000D01*
X20082883Y-11997929D01*
X19847697Y-12078669D01*
X19847688Y-12078672D01*
X19628993Y-12197024D01*
X19432757Y-12349761D01*
X19264337Y-12532713D01*
X19264329Y-12532724D01*
X19263955Y-12533297D01*
X19263742Y-12533478D01*
X19261190Y-12536758D01*
X19260514Y-12536232D01*
X19210804Y-12578647D01*
X19147365Y-12588802D01*
X19135935Y-12587616D01*
X18395462Y-13328090D01*
X18378425Y-13264507D01*
X18312599Y-13150493D01*
X18219507Y-13057401D01*
X18105493Y-12991575D01*
X18041907Y-12974536D01*
X18782555Y-12233889D01*
X18782555Y-12233888D01*
X18735736Y-12197447D01*
X18735731Y-12197444D01*
X18517114Y-12079135D01*
X18517103Y-12079130D01*
X18281993Y-11998416D01*
X18036793Y-11957500D01*
X17788207Y-11957500D01*
X17543006Y-11998416D01*
X17307896Y-12079130D01*
X17307885Y-12079135D01*
X17084755Y-12199887D01*
X17083837Y-12198190D01*
X17024907Y-12215964D01*
X16957726Y-12196770D01*
X16911586Y-12144302D01*
X16900000Y-12091967D01*
X16900000Y-3534998D01*
X18994532Y-3534998D01*
X18994532Y-3535001D01*
X19014364Y-3761686D01*
X19014366Y-3761697D01*
X19073258Y-3981488D01*
X19073261Y-3981497D01*
X19169431Y-4187732D01*
X19169432Y-4187734D01*
X19299954Y-4374141D01*
X19460858Y-4535045D01*
X19485462Y-4552273D01*
X19529087Y-4606849D01*
X19536281Y-4676348D01*
X19504758Y-4738703D01*
X19444529Y-4774117D01*
X19427593Y-4777138D01*
X19392516Y-4780908D01*
X19257671Y-4831202D01*
X19257664Y-4831206D01*
X19142455Y-4917452D01*
X19142452Y-4917455D01*
X19056206Y-5032664D01*
X19056202Y-5032671D01*
X19005908Y-5167517D01*
X18999501Y-5227116D01*
X18999500Y-5227135D01*
X18999500Y-6922870D01*
X18999501Y-6922876D01*
X19005908Y-6982483D01*
X19056202Y-7117328D01*
X19056206Y-7117335D01*
X19142452Y-7232544D01*
X19142455Y-7232547D01*
X19257664Y-7318793D01*
X19257671Y-7318797D01*
X19392517Y-7369091D01*
X19392516Y-7369091D01*
X19399444Y-7369835D01*
X19452127Y-7375500D01*
X21121744Y-7375499D01*
X21130643Y-7375818D01*
X21134452Y-7376093D01*
X21138419Y-7375811D01*
X21147212Y-7375499D01*
X21147871Y-7375499D01*
X21147872Y-7375499D01*
X21207483Y-7369091D01*
X21299232Y-7334870D01*
X21303429Y-7333391D01*
X21333603Y-7323364D01*
X22003150Y-6988591D01*
X22058604Y-6975500D01*
X23007500Y-6975500D01*
X23045943Y-6981610D01*
X23747435Y-7210361D01*
X23747437Y-7210362D01*
X24065126Y-7313957D01*
X24097982Y-7323454D01*
X24097985Y-7323454D01*
X24103246Y-7324975D01*
X24103205Y-7325113D01*
X24117382Y-7329210D01*
X24170060Y-7349618D01*
X24388757Y-7390500D01*
X24388759Y-7390500D01*
X24611241Y-7390500D01*
X24611243Y-7390500D01*
X24829940Y-7349618D01*
X25037401Y-7269247D01*
X25226562Y-7152124D01*
X25390981Y-7002236D01*
X25525058Y-6824689D01*
X25624229Y-6625528D01*
X25685115Y-6411536D01*
X25705643Y-6190000D01*
X25685115Y-5968464D01*
X25624229Y-5754472D01*
X25570647Y-5646865D01*
X25525061Y-5555316D01*
X25525056Y-5555308D01*
X25390979Y-5377761D01*
X25226562Y-5227876D01*
X25226560Y-5227874D01*
X25037404Y-5110754D01*
X25037398Y-5110752D01*
X24829940Y-5030382D01*
X24611243Y-4989500D01*
X24388757Y-4989500D01*
X24388756Y-4989500D01*
X24289163Y-5008116D01*
X24282890Y-5009123D01*
X23065726Y-5172634D01*
X23063434Y-5172990D01*
X23063137Y-5173036D01*
X23044139Y-5174500D01*
X22058606Y-5174500D01*
X22003151Y-5161409D01*
X21676099Y-4997883D01*
X21338782Y-4829224D01*
X21287624Y-4781637D01*
X21270314Y-4713945D01*
X21292349Y-4647641D01*
X21346733Y-4603775D01*
X21362789Y-4598369D01*
X21968764Y-4439550D01*
X22000201Y-4435500D01*
X26949944Y-4435500D01*
X27016983Y-4455185D01*
X27033657Y-4468023D01*
X27509223Y-4903304D01*
X27545383Y-4963087D01*
X27549500Y-4994754D01*
X27549500Y-4997860D01*
X27549501Y-4997877D01*
X27555908Y-5057483D01*
X27606202Y-5192328D01*
X27606206Y-5192335D01*
X27692452Y-5307544D01*
X27692455Y-5307547D01*
X27807664Y-5393793D01*
X27807671Y-5393797D01*
X27807674Y-5393798D01*
X27939598Y-5443002D01*
X27995531Y-5484873D01*
X28019949Y-5550337D01*
X28005098Y-5618610D01*
X27983947Y-5646865D01*
X27861886Y-5768926D01*
X27726400Y-5962420D01*
X27726399Y-5962422D01*
X27626570Y-6176507D01*
X27626567Y-6176513D01*
X27569364Y-6389999D01*
X27569364Y-6390000D01*
X28466988Y-6390000D01*
X28434075Y-6447007D01*
X28400000Y-6574174D01*
X28400000Y-6705826D01*
X28434075Y-6832993D01*
X28466988Y-6890000D01*
X27569364Y-6890000D01*
X27626567Y-7103486D01*
X27626570Y-7103492D01*
X27726399Y-7317578D01*
X27861894Y-7511082D01*
X28028917Y-7678105D01*
X28222421Y-7813600D01*
X28436507Y-7913429D01*
X28436516Y-7913433D01*
X28650000Y-7970634D01*
X28650000Y-7073012D01*
X28707007Y-7105925D01*
X28834174Y-7140000D01*
X28965826Y-7140000D01*
X29092993Y-7105925D01*
X29150000Y-7073012D01*
X29150000Y-7970633D01*
X29363483Y-7913433D01*
X29363492Y-7913429D01*
X29577578Y-7813600D01*
X29771082Y-7678105D01*
X29938105Y-7511082D01*
X30073600Y-7317578D01*
X30173429Y-7103492D01*
X30173432Y-7103486D01*
X30230636Y-6890000D01*
X29333012Y-6890000D01*
X29365925Y-6832993D01*
X29400000Y-6705826D01*
X29400000Y-6574174D01*
X29365925Y-6447007D01*
X29333012Y-6390000D01*
X30230636Y-6390000D01*
X30230635Y-6389999D01*
X30173432Y-6176513D01*
X30173429Y-6176507D01*
X30073600Y-5962422D01*
X30073599Y-5962420D01*
X29938113Y-5768926D01*
X29938108Y-5768920D01*
X29816053Y-5646865D01*
X29782568Y-5585542D01*
X29787552Y-5515850D01*
X29829424Y-5459917D01*
X29860400Y-5443002D01*
X29992331Y-5393796D01*
X30107546Y-5307546D01*
X30193796Y-5192331D01*
X30244091Y-5057483D01*
X30250500Y-4997873D01*
X30250499Y-3202128D01*
X30244091Y-3142517D01*
X30223945Y-3088504D01*
X30193797Y-3007671D01*
X30193793Y-3007664D01*
X30107547Y-2892455D01*
X30107544Y-2892452D01*
X29992335Y-2806206D01*
X29992328Y-2806202D01*
X29857482Y-2755908D01*
X29857483Y-2755908D01*
X29797883Y-2749501D01*
X29797881Y-2749500D01*
X29797873Y-2749500D01*
X29797865Y-2749500D01*
X29093075Y-2749500D01*
X29067801Y-2746897D01*
X29057155Y-2744680D01*
X29057143Y-2744679D01*
X28751465Y-2725558D01*
X28711754Y-2716361D01*
X28679607Y-2703045D01*
X28679604Y-2703045D01*
X28597666Y-2669105D01*
X28597658Y-2669103D01*
X28423696Y-2634500D01*
X28423692Y-2634500D01*
X28423691Y-2634500D01*
X27299608Y-2634500D01*
X27291867Y-2634258D01*
X27243993Y-2631263D01*
X27227973Y-2630514D01*
X27227304Y-2630494D01*
X27227297Y-2630494D01*
X27227290Y-2630494D01*
X27180866Y-2632266D01*
X27157647Y-2633152D01*
X27157210Y-2633216D01*
X27139414Y-2634500D01*
X22000202Y-2634500D01*
X21968765Y-2630449D01*
X20766354Y-2315310D01*
X20751628Y-2309996D01*
X20751586Y-2310113D01*
X20746500Y-2308262D01*
X20526697Y-2249366D01*
X20526693Y-2249365D01*
X20526692Y-2249365D01*
X20526691Y-2249364D01*
X20526686Y-2249364D01*
X20300002Y-2229532D01*
X20299998Y-2229532D01*
X20073313Y-2249364D01*
X20073302Y-2249366D01*
X19853511Y-2308258D01*
X19853502Y-2308261D01*
X19647267Y-2404431D01*
X19647265Y-2404432D01*
X19460858Y-2534954D01*
X19299954Y-2695858D01*
X19169432Y-2882265D01*
X19169431Y-2882267D01*
X19073261Y-3088502D01*
X19073258Y-3088511D01*
X19014366Y-3308302D01*
X19014364Y-3308313D01*
X18994532Y-3534998D01*
X16900000Y-3534998D01*
X16900000Y-1624500D01*
X16919685Y-1557461D01*
X16972489Y-1511706D01*
X17024000Y-1500500D01*
X29934108Y-1500500D01*
X29995572Y-1500500D01*
X30004418Y-1500816D01*
G37*
%TD.AperFunction*%
%TD*%
%TA.AperFunction,Conductor*%
%TO.N,+5V*%
G36*
X9137697Y-14074128D02*
G01*
X9144019Y-14080467D01*
X9144636Y-14087421D01*
X8902007Y-15200791D01*
X8896897Y-15208145D01*
X8890575Y-15210000D01*
X8109425Y-15210000D01*
X8101152Y-15206573D01*
X8097993Y-15200791D01*
X7855363Y-14087419D01*
X7856950Y-14078608D01*
X7862299Y-14074129D01*
X8495509Y-13810866D01*
X8504461Y-13810855D01*
X9137697Y-14074128D01*
G37*
%TD.AperFunction*%
%TD*%
%TA.AperFunction,Conductor*%
%TO.N,+5V*%
G36*
X8231391Y-13166950D02*
G01*
X8235872Y-13172303D01*
X8499132Y-13805508D01*
X8499144Y-13814463D01*
X8499132Y-13814492D01*
X8235872Y-14447696D01*
X8229532Y-14454019D01*
X8222578Y-14454636D01*
X7109209Y-14212006D01*
X7101855Y-14206896D01*
X7100000Y-14200574D01*
X7100000Y-13419425D01*
X7103427Y-13411152D01*
X7109208Y-13407993D01*
X8222580Y-13165363D01*
X8231391Y-13166950D01*
G37*
%TD.AperFunction*%
%TD*%
%TA.AperFunction,Conductor*%
%TO.N,+5V*%
G36*
X4008266Y-9087276D02*
G01*
X4680196Y-9759997D01*
X4843897Y-9923890D01*
X4847319Y-9932165D01*
X4845959Y-9937632D01*
X4403296Y-10773774D01*
X4396397Y-10779483D01*
X4392956Y-10780000D01*
X3607044Y-10780000D01*
X3598771Y-10776573D01*
X3596704Y-10773774D01*
X3154040Y-9937632D01*
X3153197Y-9928717D01*
X3156100Y-9923892D01*
X3991723Y-9087286D01*
X3999993Y-9083855D01*
X4008266Y-9087276D01*
G37*
%TD.AperFunction*%
%TD*%
%TA.AperFunction,Conductor*%
%TO.N,+5V*%
G36*
X16286409Y-13836042D02*
G01*
X16292736Y-13842380D01*
X16293053Y-13850452D01*
X15775122Y-15449405D01*
X15769312Y-15456220D01*
X15763991Y-15457500D01*
X14981009Y-15457500D01*
X14972736Y-15454073D01*
X14969878Y-15449405D01*
X14451946Y-13850452D01*
X14452657Y-13841526D01*
X14458589Y-13836042D01*
X15368014Y-13458362D01*
X15376964Y-13458354D01*
X16286409Y-13836042D01*
G37*
%TD.AperFunction*%
%TD*%
%TA.AperFunction,Conductor*%
%TO.N,/+5V_ISOLATED*%
G36*
X20845405Y-12539509D02*
G01*
X20846677Y-12540130D01*
X22376451Y-13406639D01*
X22381960Y-13413697D01*
X22382384Y-13416818D01*
X22382384Y-14199704D01*
X22378957Y-14207977D01*
X22372172Y-14211309D01*
X20465674Y-14455810D01*
X20457032Y-14453463D01*
X20452581Y-14445693D01*
X20452486Y-14444228D01*
X20451502Y-13459836D01*
X20452397Y-13455339D01*
X20469691Y-13413697D01*
X20830113Y-12545826D01*
X20836451Y-12539500D01*
X20845405Y-12539509D01*
G37*
%TD.AperFunction*%
%TD*%
%TA.AperFunction,Conductor*%
%TO.N,/+5V_ISOLATED*%
G36*
X24231391Y-13166950D02*
G01*
X24235872Y-13172303D01*
X24499132Y-13805508D01*
X24499144Y-13814463D01*
X24499132Y-13814492D01*
X24235872Y-14447696D01*
X24229532Y-14454019D01*
X24222578Y-14454636D01*
X23109209Y-14212006D01*
X23101855Y-14206896D01*
X23100000Y-14200574D01*
X23100000Y-13419425D01*
X23103427Y-13411152D01*
X23109208Y-13407993D01*
X24222580Y-13165363D01*
X24231391Y-13166950D01*
G37*
%TD.AperFunction*%
%TD*%
%TA.AperFunction,Conductor*%
%TO.N,/+5V_ISOLATED*%
G36*
X21440179Y-13457487D02*
G01*
X21448447Y-13460922D01*
X21451866Y-13469199D01*
X21451850Y-13469804D01*
X21355698Y-15290162D01*
X21351839Y-15298243D01*
X21344014Y-15301245D01*
X20561143Y-15301245D01*
X20552870Y-15297818D01*
X20551614Y-15296333D01*
X19751132Y-14172663D01*
X19749123Y-14163937D01*
X19752382Y-14157608D01*
X20449069Y-13459935D01*
X20457334Y-13456504D01*
X21440179Y-13457487D01*
G37*
%TD.AperFunction*%
%TD*%
%TA.AperFunction,Conductor*%
%TO.N,/PROBE*%
G36*
X5691459Y-6137606D02*
G01*
X5698499Y-6143138D01*
X5700000Y-6148871D01*
X5700000Y-6931128D01*
X5696573Y-6939401D01*
X5691458Y-6942394D01*
X4335265Y-7322499D01*
X4326374Y-7321432D01*
X4321302Y-7315722D01*
X4161508Y-6931128D01*
X4000864Y-6544488D01*
X4000856Y-6535534D01*
X4000865Y-6535511D01*
X4163891Y-6143138D01*
X4321303Y-5764275D01*
X4327641Y-5757952D01*
X4335264Y-5757500D01*
X5691459Y-6137606D01*
G37*
%TD.AperFunction*%
%TD*%
%TA.AperFunction,Conductor*%
%TO.N,/PROBE*%
G36*
X8236563Y-5554237D02*
G01*
X8237257Y-5555636D01*
X8500099Y-6187834D01*
X8500996Y-6192343D01*
X8500016Y-6878760D01*
X8496577Y-6887028D01*
X8488769Y-6890434D01*
X7220309Y-6939529D01*
X7211909Y-6936425D01*
X7208165Y-6928291D01*
X7208156Y-6927838D01*
X7208156Y-6146723D01*
X7211583Y-6138450D01*
X7213960Y-6136617D01*
X8220565Y-5550018D01*
X8229436Y-5548815D01*
X8236563Y-5554237D01*
G37*
%TD.AperFunction*%
%TD*%
%TA.AperFunction,Conductor*%
%TO.N,/PROBE*%
G36*
X12372865Y-5339697D02*
G01*
X12377764Y-5345307D01*
X12679134Y-6070510D01*
X12679144Y-6079463D01*
X12679135Y-6079485D01*
X12679134Y-6079490D01*
X12377764Y-6804692D01*
X12371425Y-6811017D01*
X12363994Y-6811520D01*
X11088734Y-6477289D01*
X11081600Y-6471876D01*
X11080000Y-6465971D01*
X11080000Y-5684028D01*
X11083427Y-5675755D01*
X11088731Y-5672711D01*
X12363996Y-5338479D01*
X12372865Y-5339697D01*
G37*
%TD.AperFunction*%
%TD*%
%TA.AperFunction,Conductor*%
%TO.N,/PROBE*%
G36*
X8513232Y-5491777D02*
G01*
X9866984Y-5673637D01*
X9874726Y-5678135D01*
X9877125Y-5685233D01*
X9877125Y-6466508D01*
X9873698Y-6474781D01*
X9869052Y-6477632D01*
X8778157Y-6833364D01*
X8769229Y-6832670D01*
X8763727Y-6826732D01*
X8499900Y-6192165D01*
X8499003Y-6187656D01*
X8499980Y-5503354D01*
X8503419Y-5495089D01*
X8511697Y-5491674D01*
X8513232Y-5491777D01*
G37*
%TD.AperFunction*%
%TD*%
%TA.AperFunction,Conductor*%
%TO.N,Net-(R2-Pad1)*%
G36*
X24495417Y-5494073D02*
G01*
X24499915Y-5501816D01*
X24500019Y-5503357D01*
X24500996Y-6187656D01*
X24500099Y-6192165D01*
X24236272Y-6826732D01*
X24229932Y-6833055D01*
X24221842Y-6833363D01*
X23904153Y-6729768D01*
X23130948Y-6477632D01*
X23124145Y-6471809D01*
X23122875Y-6466508D01*
X23122875Y-5685233D01*
X23126302Y-5676960D01*
X23133015Y-5673637D01*
X24486762Y-5491778D01*
X24495417Y-5494073D01*
G37*
%TD.AperFunction*%
%TD*%
%TA.AperFunction,Conductor*%
%TO.N,Net-(R2-Pad1)*%
G36*
X21107535Y-5278767D02*
G01*
X21893532Y-5671766D01*
X21899400Y-5678531D01*
X21900000Y-5682231D01*
X21900000Y-6467769D01*
X21896573Y-6476042D01*
X21893532Y-6478234D01*
X21107537Y-6871231D01*
X21098605Y-6871866D01*
X21094037Y-6869044D01*
X20307288Y-6083278D01*
X20303856Y-6075007D01*
X20307278Y-6066732D01*
X20307288Y-6066722D01*
X20692260Y-5682231D01*
X21094037Y-5280954D01*
X21102312Y-5277533D01*
X21107535Y-5278767D01*
G37*
%TD.AperFunction*%
%TD*%
%TA.AperFunction,Conductor*%
%TO.N,/PROBE_ISOLATED*%
G36*
X21891267Y-3132711D02*
G01*
X21898400Y-3138123D01*
X21900000Y-3144028D01*
X21900000Y-3925971D01*
X21896573Y-3934244D01*
X21891266Y-3937289D01*
X20616005Y-4271520D01*
X20607134Y-4270302D01*
X20602236Y-4264693D01*
X20300864Y-3539487D01*
X20300854Y-3530538D01*
X20602236Y-2805305D01*
X20608574Y-2798982D01*
X20616002Y-2798479D01*
X21891267Y-3132711D01*
G37*
%TD.AperFunction*%
%TD*%
%TA.AperFunction,Conductor*%
%TO.N,/PROBE_ISOLATED*%
G36*
X27212413Y-3135776D02*
G01*
X29025593Y-3249194D01*
X29033637Y-3253130D01*
X29036540Y-3261601D01*
X29036413Y-3262739D01*
X28901774Y-4095211D01*
X28897070Y-4102831D01*
X28897062Y-4102836D01*
X28057720Y-4707435D01*
X28049005Y-4709490D01*
X28042982Y-4706573D01*
X27203800Y-3938478D01*
X27200011Y-3930364D01*
X27200000Y-3929847D01*
X27200000Y-3147454D01*
X27203427Y-3139181D01*
X27211700Y-3135754D01*
X27212413Y-3135776D01*
G37*
%TD.AperFunction*%
%TD*%
M02*
