M48
; DRILL file {KiCad 8.0.7} date 2025-01-25T10:49:17-0500
; FORMAT={-:-/ absolute / inch / decimal}
; #@! TF.CreationDate,2025-01-25T10:49:17-05:00
; #@! TF.GenerationSoftware,Kicad,Pcbnew,8.0.7
; #@! TF.FileFunction,MixedPlating,1,2
FMAT,2
INCH
; #@! TA.AperFunction,Plated,PTH,ComponentDrill
T1C0.0276
; #@! TA.AperFunction,Plated,PTH,ComponentDrill
T2C0.0315
; #@! TA.AperFunction,Plated,PTH,ComponentDrill
T3C0.0394
; #@! TA.AperFunction,NonPlated,NPTH,ComponentDrill
T4C0.1260
%
G90
G05
T1
X0.3346Y-0.2437
X0.3346Y-0.5437
X0.9646Y-0.2437
X0.9646Y-0.5437
T2
X0.4707Y-0.7087
X0.4992Y-0.1392
X0.4992Y-0.2392
X0.5691Y-0.7087
X0.7266Y-0.7087
X0.7992Y-0.1392
X0.7992Y-0.2392
X0.825Y-0.7087
T3
X0.1575Y-0.1575
X0.1575Y-0.2575
X0.1575Y-0.3575
X0.5052Y-0.5298
X0.6052Y-0.5298
X0.7052Y-0.5298
X0.8052Y-0.5298
X1.1378Y-0.1614
X1.1378Y-0.2614
T4
X0.1772Y-0.689
X1.122Y-0.689
M30
